<svg width="41" height="40" viewBox="0 0 41 40" fill="none" xmlns="http://www.w3.org/2000/svg">
<path d="M12.2188 23.8179C12.2188 24.0949 12.0072 24.3165 11.75 24.3165C11.4896 24.3165 11.2812 24.0914 11.2812 23.8179V11.6042H1.4375V36.2185H3.06185C3.32227 36.2185 3.5306 36.4436 3.5306 36.7172C3.5306 36.9942 3.31901 37.2158 3.06185 37.2158H0.96875C0.708333 37.2158 0.5 36.9907 0.5 36.7172V11.3375C0.5 11.1367 0.578125 10.9532 0.701823 10.8181C0.825521 10.6865 0.998047 10.6034 1.1901 10.6034H11.2812V0.876115C11.2812 0.637174 11.3724 0.415548 11.5221 0.259718V0.256255C11.6719 0.0969613 11.877 0 12.1048 0H28.8203C29.0482 0 29.2533 0.0969613 29.403 0.256255L29.4388 0.29781C29.5658 0.45364 29.6471 0.654489 29.6471 0.876115V10.6034H39.8099C39.9987 10.6034 40.1712 10.6865 40.2949 10.8181L40.2982 10.8216C40.4219 10.9532 40.5 11.1367 40.5 11.3375V36.7172C40.5 36.9942 40.2884 37.2158 40.0313 37.2158H37.056C36.7956 37.2158 36.5872 36.9907 36.5872 36.7172C36.5872 36.4401 36.7988 36.2185 37.056 36.2185H39.5625V11.6042H29.6439V23.6724C29.6439 23.9494 29.4323 24.1711 29.1751 24.1711C28.9147 24.1711 28.7064 23.946 28.7064 23.6724V0.997316H12.2188V23.8179ZM32.1243 23.7347H37.3001C37.3424 23.7347 37.3783 23.7624 37.3783 23.7936V25.4212C37.3783 25.4558 37.3424 25.4835 37.3001 25.4835H32.1243C32.082 25.4835 32.0462 25.4558 32.0462 25.4212V23.7936C32.0462 23.7624 32.082 23.7347 32.1243 23.7347ZM3.66081 23.7347H8.83659C8.87891 23.7347 8.91471 23.7624 8.91471 23.7936V25.4212C8.91471 25.4558 8.87891 25.4835 8.83659 25.4835H3.66081C3.61849 25.4835 3.58268 25.4558 3.58268 25.4212V23.7936C3.58268 23.7624 3.61849 23.7347 3.66081 23.7347ZM14.3216 2.93308H26.6068C26.8118 2.93308 26.9811 3.11315 26.9811 3.33131V7.59415C26.9811 7.81231 26.8118 7.99238 26.6068 7.99238H14.3216C14.1165 7.99238 13.9473 7.81231 13.9473 7.59415V3.33131C13.944 3.11315 14.1133 2.93308 14.3216 2.93308ZM32.2057 36.3674C31.8639 35.6367 31.431 35.0169 30.9232 34.4351C31.8737 34.8264 32.847 35.2143 33.5664 35.6956C34.875 36.5683 34.9727 37.6244 35.0801 39.1412H28.5924C28.5924 39.1308 28.5924 39.117 28.5924 39.1066L28.472 38.0227L28.9375 38.4521L31.2161 36.3432L32.2057 36.3674ZM8.98958 34.6567L9.81315 37.2331L10.2266 35.7025L10.0247 35.4671C9.93359 35.3251 9.91406 35.2004 9.96289 35.0931C10.0736 34.861 10.3014 34.9061 10.513 34.9061C10.7344 34.9061 11.0111 34.861 11.0794 35.1589C11.1022 35.2593 11.0729 35.3632 11.0078 35.4705L10.806 35.706L11.2194 37.2366L11.9648 34.6602C12.0723 34.7641 12.2253 34.8507 12.401 34.9268C12.3392 35.0654 12.2839 35.2073 12.235 35.3597C12.1081 35.751 12.0267 36.1839 11.9909 36.6652H11.9941C11.9941 36.6756 11.9941 36.6895 11.9909 36.6999L11.8118 39.1447H5.85156C5.49349 39.117 5.3112 38.9196 5.2819 38.5802L5.4056 37.2297C5.44141 36.7483 5.56836 36.3709 5.77344 36.08C5.91016 35.8895 6.07943 35.7476 6.26497 35.6367C6.85742 35.2731 8.45247 35.1727 8.98958 34.6567ZM8.58594 31.0034C8.50456 31.0103 8.44596 31.0311 8.40039 31.0588C8.37435 31.0761 8.35807 31.1003 8.34505 31.128C8.33203 31.1592 8.32552 31.2008 8.32552 31.2458C8.32878 31.3878 8.40039 31.5782 8.54037 31.7964L8.54362 31.7998L9.0026 32.579C9.1849 32.8907 9.38021 33.2058 9.61458 33.4378C9.83919 33.656 10.1159 33.8049 10.4772 33.8083C10.8711 33.8083 11.1576 33.656 11.3919 33.4239C11.6361 33.1815 11.8314 32.8422 12.0234 32.5063L12.541 31.599C12.6452 31.3462 12.6777 31.1938 12.6452 31.1211C12.6257 31.0761 12.5378 31.0657 12.3978 31.0761C12.3066 31.0969 12.2155 31.0796 12.1146 31.0242L12.3717 30.2C11.4245 30.1861 10.7734 30.013 10.0085 29.4901C9.75781 29.3204 9.67969 29.123 9.42904 29.1403C9.23698 29.1784 9.07747 29.2719 8.95052 29.4174C8.82682 29.5559 8.73568 29.7463 8.67708 29.9922L8.83008 30.9826C8.7487 31.0345 8.66732 31.038 8.58594 31.0034ZM12.6908 30.7575C12.8014 30.7921 12.8828 30.8614 12.9349 30.9653C13.013 31.135 12.9837 31.3843 12.8372 31.7375C12.834 31.7444 12.8307 31.7514 12.8275 31.7583L12.3034 32.676C12.1016 33.0326 11.8932 33.3893 11.6165 33.6663C11.3268 33.9538 10.972 34.1442 10.4837 34.1442C10.028 34.1442 9.6862 33.9572 9.40625 33.6837C9.13607 33.4205 8.93099 33.0846 8.73893 32.7556L8.27995 31.9764C8.10742 31.7029 8.01953 31.4536 8.01302 31.2492C8.00977 31.1488 8.02604 31.0588 8.06185 30.9791C8.09766 30.896 8.15625 30.8233 8.23112 30.7714C8.26693 30.7437 8.30924 30.7229 8.35807 30.7056C8.32878 30.29 8.31901 29.774 8.33854 29.3377C8.34831 29.2304 8.36784 29.1265 8.39388 29.0191C8.51107 28.5724 8.80729 28.2123 9.17188 27.9664C9.30208 27.8798 9.44206 27.8071 9.5918 27.7482C10.4772 27.4089 11.6491 27.5924 12.2773 28.3162C12.5345 28.6105 12.694 29.0018 12.7266 29.5178L12.6908 30.7575ZM17.3229 27.3085C17.2188 27.3223 17.1406 27.35 17.082 27.3881C17.043 27.4158 17.0169 27.4504 17.0007 27.4885C16.9811 27.537 16.9714 27.5959 16.9714 27.6617C16.9779 27.8729 17.0853 28.1569 17.2904 28.4824L17.2936 28.4893L17.9805 29.6528C18.2539 30.1169 18.5404 30.5878 18.8952 30.9341C19.2337 31.2631 19.6406 31.4847 20.181 31.4847C20.7669 31.4847 21.1966 31.2562 21.5417 30.9099C21.9062 30.5463 22.1992 30.0441 22.4824 29.542L23.2539 28.1915C23.4102 27.814 23.4557 27.5855 23.4069 27.4816C23.3744 27.4123 23.2409 27.395 23.013 27.4193C22.9967 27.4193 22.9772 27.4193 22.9609 27.4193C22.8665 27.4193 22.7656 27.395 22.6517 27.3396L23 26.1068C21.584 26.0895 20.6172 25.8263 19.4714 25.0472C19.0938 24.7909 18.9831 24.5 18.6055 24.5277C18.3223 24.5866 18.0814 24.7217 17.8926 24.9398C17.7103 25.1476 17.5736 25.4316 17.4824 25.7986L17.7266 27.2911C17.5866 27.3604 17.4499 27.3673 17.3229 27.3085ZM17.9609 32.7556L19.1914 36.6029L19.8099 34.3208L19.5072 33.9676C19.3704 33.7564 19.3411 33.5694 19.416 33.4101C19.5788 33.0638 19.9206 33.1296 20.2363 33.1296C20.5684 33.1296 20.9785 33.0638 21.0827 33.5036C21.1185 33.6525 21.0729 33.8049 20.9753 33.9676L20.6725 34.3208L21.291 36.6029L22.4043 32.7556C23.2083 33.5244 25.2754 33.6802 26.1608 34.2031C26.4017 34.3451 26.6198 34.5217 26.8053 34.7468C26.8086 34.7225 26.8151 34.6948 26.8281 34.6741C26.9258 34.4697 27.1276 34.5078 27.3164 34.5078C27.515 34.5078 27.7591 34.4697 27.821 34.7329C27.8405 34.8195 27.8145 34.913 27.7591 35.01L27.5801 35.2212L27.9479 36.5786L27.4759 36.9769L27.6322 39.155C27.5866 39.6641 27.3164 39.955 26.7826 40H13.5859C13.0521 39.955 12.7819 39.6641 12.7363 39.155L12.9219 36.589C12.974 35.8722 13.1628 35.3043 13.472 34.8714C13.6738 34.5875 13.9277 34.3762 14.2077 34.21C15.0898 33.6802 17.1569 33.5244 17.9609 32.7556ZM23.4818 26.9379C23.6478 26.9899 23.7715 27.0903 23.8464 27.2496C23.9635 27.5024 23.918 27.8729 23.6999 28.4027C23.6966 28.4131 23.6901 28.4235 23.6869 28.4339L22.9023 29.8052C22.5996 30.3385 22.2904 30.8683 21.877 31.2804C21.444 31.7098 20.9134 31.9972 20.1875 31.9938C19.5072 31.9938 18.9961 31.7167 18.5762 31.3081C18.1725 30.9168 17.8698 30.4147 17.5768 29.923L16.89 28.7594C16.6328 28.3543 16.5026 27.9803 16.4928 27.6721C16.4896 27.5232 16.5124 27.3881 16.5645 27.2704C16.6198 27.1457 16.7044 27.0383 16.8184 26.9587C16.8737 26.9171 16.9388 26.886 17.0072 26.8583C16.9648 26.235 16.9518 25.4662 16.9779 24.8186C16.9941 24.6593 17.0202 24.5035 17.0625 24.3442C17.2383 23.6759 17.6777 23.1391 18.2246 22.7721C18.4167 22.6405 18.6283 22.5331 18.8496 22.45C20.168 21.941 21.9193 22.218 22.8568 23.2984C23.2376 23.7382 23.4785 24.32 23.5306 25.0887L23.4818 26.9379ZM25.8678 33.2889L26.4733 33.2716L26.9779 33.2577C26.3919 31.3358 26.5872 29.5697 28 28.0668C28.2409 28.891 28.778 29.5732 29.6927 30.0753C30.1289 30.4216 30.5521 30.8372 30.9622 31.3185C31.0339 30.9999 30.7572 30.6155 30.4219 30.2173C30.7311 30.3801 31.0176 30.6086 31.2194 31.0484C31.4538 31.5574 31.4505 31.9868 31.3724 32.5409C31.3366 32.7972 31.278 33.0396 31.1934 33.2577H32.0299C32.9121 31.2492 32.3522 28.2677 30.5488 27.0037C29.9954 26.6159 29.5983 26.6297 28.9473 26.6297C28.2051 26.6297 27.8242 26.654 27.1862 27.1041C26.2487 27.7656 25.6693 28.9083 25.4284 30.4943C25.3796 31.2873 25.347 32.6552 25.8678 33.2889ZM32.1243 20.1783H37.3001C37.3424 20.1783 37.3783 20.206 37.3783 20.2407V21.8682C37.3783 21.9029 37.3424 21.9306 37.3001 21.9306H32.1243C32.082 21.9306 32.0462 21.9029 32.0462 21.8682V20.2407C32.0462 20.206 32.082 20.1783 32.1243 20.1783ZM32.1243 16.6185H37.3001C37.3424 16.6185 37.3783 16.6462 37.3783 16.6808V18.3084C37.3783 18.343 37.3424 18.3707 37.3001 18.3707H32.1243C32.082 18.3707 32.0462 18.343 32.0462 18.3084V16.6808C32.0462 16.6462 32.082 16.6185 32.1243 16.6185ZM3.66081 20.1783H8.83659C8.87891 20.1783 8.91471 20.206 8.91471 20.2407V21.8682C8.91471 21.9029 8.87891 21.9306 8.83659 21.9306H3.66081C3.61849 21.9306 3.58268 21.9029 3.58268 21.8682V20.2407C3.58268 20.206 3.61849 20.1783 3.66081 20.1783ZM3.66081 16.6185H8.83659C8.87891 16.6185 8.91471 16.6462 8.91471 16.6808V18.3084C8.91471 18.343 8.87891 18.3707 8.83659 18.3707H3.66081C3.61849 18.3707 3.58268 18.343 3.58268 18.3084V16.6808C3.58268 16.6462 3.61849 16.6185 3.66081 16.6185ZM23.8301 16.9959H26.5938C26.6361 16.9959 26.6719 17.034 26.6719 17.079V20.019C26.6719 20.0641 26.6361 20.1022 26.5938 20.1022H23.8301C23.7878 20.1022 23.752 20.0641 23.752 20.019V17.079C23.752 17.034 23.7878 16.9959 23.8301 16.9959ZM19.0807 16.9959H21.8444C21.8867 16.9959 21.9225 17.034 21.9225 17.079V20.019C21.9225 20.0641 21.8867 20.1022 21.8444 20.1022H19.0807C19.0384 20.1022 19.0026 20.0641 19.0026 20.019V17.079C19.0026 17.034 19.0384 16.9959 19.0807 16.9959ZM14.3314 16.9959H17.0951C17.1374 16.9959 17.1732 17.034 17.1732 17.079V20.019C17.1732 20.0641 17.1374 20.1022 17.0951 20.1022H14.3314C14.2891 20.1022 14.2533 20.0641 14.2533 20.019V17.079C14.2533 17.034 14.2891 16.9959 14.3314 16.9959ZM23.8301 11.2925H26.5938C26.6361 11.2925 26.6719 11.3306 26.6719 11.3756V14.3156C26.6719 14.3607 26.6361 14.3988 26.5938 14.3988H23.8301C23.7878 14.3988 23.752 14.3607 23.752 14.3156V11.3756C23.752 11.3272 23.7878 11.2925 23.8301 11.2925ZM19.0807 11.2925H21.8444C21.8867 11.2925 21.9225 11.3306 21.9225 11.3756V14.3156C21.9225 14.3607 21.8867 14.3988 21.8444 14.3988H19.0807C19.0384 14.3988 19.0026 14.3607 19.0026 14.3156V11.3756C19.0026 11.3272 19.0384 11.2925 19.0807 11.2925ZM14.3314 11.2925H17.0951C17.1374 11.2925 17.1732 11.3306 17.1732 11.3756V14.3156C17.1732 14.3607 17.1374 14.3988 17.0951 14.3988H14.3314C14.2891 14.3988 14.2533 14.3607 14.2533 14.3156V11.3756C14.2533 11.3272 14.2891 11.2925 14.3314 11.2925Z" fill="#0078FF"/>
</svg>
