<svg width="24" height="24" viewBox="0 0 24 24" fill="none" xmlns="http://www.w3.org/2000/svg">
<path d="M9.75 8.625H14.25" stroke="#111111" stroke-width="1.5" stroke-linecap="round" stroke-linejoin="round"/>
<path d="M21.525 14.4655L17.4281 5.15617C17.0051 4.73767 16.4341 4.50293 15.8391 4.50293C15.244 4.50293 14.673 4.73767 14.25 5.15617V15.7499" stroke="#111111" stroke-width="1.5" stroke-linecap="round" stroke-linejoin="round"/>
<path d="M9.74998 15.7499V5.15617C9.32698 4.73767 8.75596 4.50293 8.16091 4.50293C7.56587 4.50293 6.99485 4.73767 6.57185 5.15617L2.47498 14.4655" stroke="#111111" stroke-width="1.5" stroke-linecap="round" stroke-linejoin="round"/>
<path d="M6 19.5C8.07107 19.5 9.75 17.8211 9.75 15.75C9.75 13.6789 8.07107 12 6 12C3.92893 12 2.25 13.6789 2.25 15.75C2.25 17.8211 3.92893 19.5 6 19.5Z" stroke="#111111" stroke-width="1.5" stroke-linecap="round" stroke-linejoin="round"/>
<path d="M18 19.5C20.0711 19.5 21.75 17.8211 21.75 15.75C21.75 13.6789 20.0711 12 18 12C15.9289 12 14.25 13.6789 14.25 15.75C14.25 17.8211 15.9289 19.5 18 19.5Z" stroke="#111111" stroke-width="1.5" stroke-linecap="round" stroke-linejoin="round"/>
</svg>
