<svg width="41" height="35" viewBox="0 0 41 35" fill="none" xmlns="http://www.w3.org/2000/svg">
<path d="M9.151 4.12996C8.95953 4.12996 8.82028 4.12996 8.66362 4.12996C6.24412 4.12996 3.82463 4.12996 1.42254 4.12996C0.69147 4.12996 0.5 3.91355 0.5 3.15609C0.5 2.41666 0.5 1.69527 0.5 0.955843C0.5 0.198383 0.708877 0 1.43995 0C12.1101 0 22.7976 0 33.4678 0C35.5043 0 37.5409 0 39.5949 0C40.2737 0 40.4826 0.216418 40.5 0.919774C40.5 1.69527 40.5 2.47076 40.5 3.24626C40.5 3.89551 40.2737 4.12996 39.6471 4.12996C37.1406 4.12996 34.6514 4.12996 32.1449 4.12996C32.0579 4.12996 31.9708 4.12996 31.8316 4.12996C31.8316 4.72511 31.8142 5.30222 31.849 5.89737C31.849 6.00558 31.9708 6.11379 32.0405 6.222C32.963 7.37622 33.903 8.54848 34.8429 9.70271C35.0692 9.97323 35.2781 10.2437 35.104 10.6225C34.9299 11.0192 34.5992 11.0553 34.2337 11.0373C34.1118 11.0373 33.99 11.0373 33.8681 11.0373C33.5722 12.8047 32.6149 13.7786 31.205 13.7966C29.7602 13.8146 28.7855 12.8588 28.4547 11.0373C28.2807 11.0373 28.1066 11.0373 27.9326 11.0373C27.6192 11.0373 27.3581 10.9291 27.2363 10.6044C27.097 10.2979 27.2015 10.0454 27.393 9.81091C28.3329 8.63865 29.2728 7.46639 30.2302 6.31217C30.4391 6.05968 30.5261 5.82523 30.5087 5.5006C30.4913 5.06777 30.5087 4.6169 30.5087 4.148C23.842 4.148 17.2102 4.148 10.5261 4.148C10.5261 4.72511 10.5087 5.30222 10.5435 5.89737C10.5435 6.00558 10.6654 6.11379 10.735 6.222C11.6575 7.37622 12.5975 8.54848 13.5374 9.70271C13.7637 9.97323 13.9726 10.2437 13.7985 10.6225C13.6245 11.0192 13.2763 11.0553 12.9282 11.0373C12.8064 11.0373 12.6845 11.0553 12.5627 11.0553C12.2842 12.8408 11.2572 13.8327 9.77763 13.7966C8.38512 13.7605 7.35814 12.6784 7.18407 11.0373C7.01001 11.0373 6.81854 11.0373 6.62707 11.0373C6.31375 11.0373 6.05265 10.9291 5.93081 10.6044C5.80896 10.2979 5.9134 10.0454 6.10487 9.81091C7.04482 8.63865 7.98477 7.46639 8.94212 6.31217C9.151 6.05968 9.23803 5.82523 9.22063 5.5006C9.13359 5.04973 9.151 4.59887 9.151 4.12996ZM1.8403 2.70522C14.2859 2.70522 26.6967 2.70522 39.1075 2.70522C39.1075 2.23631 39.1075 1.80348 39.1075 1.37064C26.6619 1.37064 14.2685 1.37064 1.8403 1.37064C1.8403 1.82151 1.8403 2.25435 1.8403 2.70522ZM9.81244 7.26801C9.16841 8.07958 8.57659 8.819 7.94996 9.61253C9.23803 9.61253 10.4391 9.61253 11.6923 9.61253C11.0483 8.80097 10.4565 8.06154 9.81244 7.26801ZM33.0326 9.63057C32.3712 8.80097 31.762 8.06154 31.1353 7.26801C30.4913 8.06154 29.8995 8.819 29.2554 9.63057C30.5435 9.63057 31.7446 9.63057 33.0326 9.63057ZM8.50696 11.0373C8.45474 11.7947 9.18581 12.426 9.84726 12.4079C10.5609 12.3899 11.1179 11.8128 11.1179 11.0373C10.2476 11.0373 9.37728 11.0373 8.50696 11.0373ZM29.8299 11.0373C29.8995 11.8849 30.4913 12.444 31.2398 12.4079C31.936 12.3538 32.493 11.7406 32.4408 11.0373C31.5705 11.0373 30.7176 11.0373 29.8299 11.0373Z" fill="#0078FF"/>
<path d="M27.5907 14.8235C27.2774 15.1481 26.9815 15.4547 26.703 15.7613C23.2739 12.1904 17.669 12.2265 14.2748 15.7613C13.9963 15.4547 13.7178 15.1301 13.4219 14.8235C16.6247 11.0722 23.4132 10.3328 27.5907 14.8235Z" fill="#0078FF"/>
<path d="M25.6523 16.8103C25.3564 17.135 25.0605 17.4596 24.7819 17.7662C22.3102 15.2954 18.6027 15.3315 16.1832 17.7662C15.9047 17.4415 15.6262 17.135 15.3477 16.8103C17.5061 14.1051 22.6584 13.51 25.6523 16.8103Z" fill="#0078FF"/>
<path d="M18.1047 19.8023C17.7914 19.4597 17.5129 19.135 17.2344 18.8104C18.7313 17.0069 21.9689 16.7905 23.7792 18.7924C23.4833 19.117 23.2048 19.4236 22.8915 19.7663C22.2126 19.135 21.4467 18.7563 20.5242 18.7563C19.5842 18.7743 18.801 19.117 18.1047 19.8023Z" fill="#0078FF"/>
<path d="M15.1387 35.8728C14.6165 35.8728 14.1465 35.8728 13.6417 35.8728C13.8854 34.5201 14.1117 33.2036 14.338 31.8871C14.3728 31.6887 14.4076 31.4903 14.4424 31.2919C14.5295 30.7148 14.2684 30.3722 13.6939 30.3722C12.9803 30.3722 12.284 30.3722 11.5704 30.3722C9.70787 30.3722 7.84538 30.3722 6.0003 30.3722C5.30404 30.3722 5.06035 30.6787 5.18219 31.4001C5.44329 32.879 5.68698 34.3578 5.94808 35.8728C5.4607 35.8728 4.99072 35.8728 4.52075 35.8728C4.50334 35.8547 4.46853 35.8367 4.46853 35.8187C4.48594 34.1595 4.3815 32.5003 4.55556 30.8771C4.83406 28.226 7.18393 26.2422 9.7949 26.2422C12.4059 26.2422 14.6687 28.244 15.0342 30.9132C15.0691 31.1296 15.1039 31.346 15.1039 31.5624C15.1561 32.9511 15.1387 34.3939 15.1387 35.8728Z" fill="#0078FF"/>
<path d="M36.4809 35.8674C35.9413 35.8674 35.4713 35.8674 34.9839 35.8674C35.245 34.3705 35.5061 32.9097 35.7672 31.4488C35.9065 30.6733 35.6802 30.3667 34.9143 30.3667C32.4078 30.3667 29.8838 30.3667 27.3773 30.3667C26.6462 30.3667 26.4025 30.6733 26.5418 31.4128C26.8029 32.8736 27.0466 34.3524 27.3077 35.8493C26.8203 35.8493 26.3503 35.8493 25.8455 35.8493C25.8455 35.7411 25.8281 35.6149 25.8281 35.4886C25.8281 34.2442 25.8281 32.9818 25.8281 31.7374C25.8455 28.6715 28.2128 26.2188 31.1371 26.2188C34.0788 26.2188 36.4635 28.6534 36.4809 31.7194C36.4809 33.09 36.4809 34.4606 36.4809 35.8674Z" fill="#0078FF"/>
<path d="M13.0114 31.7578C12.7677 33.1285 12.5414 34.4811 12.2977 35.8517C10.6441 35.8517 9.02531 35.8517 7.35429 35.8517C7.1106 34.4991 6.88432 33.1465 6.64062 31.7578C8.76421 31.7578 10.8704 31.7578 13.0114 31.7578Z" fill="#0078FF"/>
<path d="M33.6258 35.8673C31.9722 35.8673 30.336 35.8673 28.6824 35.8673C28.4387 34.5147 28.2124 33.1621 27.9688 31.7734C30.0923 31.7734 32.1985 31.7734 34.3569 31.7734C34.0958 33.126 33.8695 34.4787 33.6258 35.8673Z" fill="#0078FF"/>
<path d="M12.4787 22.054C12.4787 23.5869 11.2951 24.8313 9.81553 24.8313C8.33598 24.8313 7.15234 23.5869 7.15234 22.072C7.15234 20.5571 8.33598 19.3307 9.78072 19.3127C11.2777 19.2947 12.4787 20.521 12.4787 22.054Z" fill="#0078FF"/>
<path d="M33.8107 22.076C33.8107 23.609 32.6097 24.8534 31.1476 24.8534C29.668 24.8534 28.4844 23.609 28.4844 22.076C28.4844 20.5791 29.668 19.3347 31.1302 19.3347C32.5923 19.2987 33.7933 20.5431 33.8107 22.076Z" fill="#0078FF"/>
<path d="M1.83984 2.70176C1.83984 2.25089 1.83984 1.81806 1.83984 1.36719C14.268 1.36719 26.6614 1.36719 39.107 1.36719C39.107 1.80002 39.107 2.23286 39.107 2.70176C26.6962 2.70176 14.2854 2.70176 1.83984 2.70176Z" fill="#0078FF"/>
<path d="M9.81561 7.26758C10.4597 8.06111 11.0515 8.80053 11.6955 9.6121C10.4422 9.6121 9.2238 9.6121 7.95312 9.6121C8.57976 8.81857 9.17158 8.07914 9.81561 7.26758Z" fill="#0078FF"/>
<path d="M33.0311 9.63013C31.743 9.63013 30.542 9.63013 29.2539 9.63013C29.8979 8.81857 30.5072 8.07914 31.1338 7.26758C31.7778 8.06111 32.3697 8.80053 33.0311 9.63013Z" fill="#0078FF"/>
<path d="M20.5336 22.9601C19.6806 22.9601 18.9844 22.2206 18.9844 21.3189C18.9844 20.4172 19.6806 19.6777 20.5336 19.6777C21.3865 19.6777 22.0827 20.4172 22.0827 21.3189C22.0827 22.2206 21.3865 22.9601 20.5336 22.9601ZM20.5336 20.4713C20.0984 20.4713 19.7503 20.85 19.7503 21.3189C19.7503 21.7878 20.0984 22.1665 20.5336 22.1665C20.9687 22.1665 21.3168 21.7878 21.3168 21.3189C21.3168 20.85 20.9687 20.4713 20.5336 20.4713Z" fill="#0078FF"/>
</svg>
