<svg width="41" height="40" viewBox="0 0 41 40" fill="none" xmlns="http://www.w3.org/2000/svg">
<path d="M38.4405 35.9913C38.023 35.9913 37.6194 35.9913 37.1881 35.9913V22.6011C38.6492 22.1836 39.5676 21.2649 39.7903 19.7616C39.8738 19.2605 39.846 18.7316 39.8181 18.2305C39.8042 17.9661 39.7346 17.6738 39.5955 17.4511C38.5935 15.8086 37.5499 14.1801 36.5479 12.5376C36.3114 12.1479 36.0331 11.9809 35.5738 11.9809C32.9298 11.9948 30.2998 11.9948 27.6558 11.9948H27.1966V10.6585C28.3098 10.6585 29.4092 10.6725 30.5085 10.6585C31.6218 10.6446 32.4985 9.79556 32.4985 8.68204C32.5124 6.44106 32.5124 4.21401 32.4985 1.97303C32.4985 0.873423 31.6218 0.0104393 30.5363 0.0104393C23.8568 -0.00347977 17.1772 -0.00347977 10.4977 0.0104393C9.38442 0.0104393 8.52165 0.887343 8.50773 2.00087C8.49381 4.22793 8.49381 6.44106 8.50773 8.66812C8.50773 9.78165 9.37051 10.6446 10.4838 10.6725C10.776 10.6864 11.0682 10.6725 11.3605 10.6725H13.8096V12.0087H13.3226C10.6925 12.0087 8.04851 12.0087 5.40452 12.0087C4.98705 12.0087 4.70874 12.1479 4.48608 12.5098C3.45632 14.1801 2.39872 15.8504 1.35504 17.5207C1.28547 17.632 1.18806 17.7712 1.18806 17.8965C1.21589 18.7038 1.16022 19.525 1.34113 20.2906C1.64727 21.5572 2.57963 22.281 3.80421 22.6151V36.0052C3.33108 36.0052 2.89969 35.9913 2.45439 36.0052C1.38288 36.0331 0.534016 36.8821 0.506185 37.9539C0.492269 38.288 0.506185 38.622 0.506185 38.9561C0.506185 39.8469 0.673173 40 1.53595 40H39.4424C39.5398 40 39.6372 40 39.7346 40C40.2495 39.9861 40.4861 39.7495 40.5 39.2205C40.5 38.8308 40.5 38.4411 40.5 38.0513C40.4861 36.8543 39.6372 36.0052 38.4405 35.9913ZM32.3036 20.9587C31.6218 21.4319 30.8703 21.4598 30.1606 21.0422C29.27 20.5133 29.0891 19.6642 29.2004 18.6759H33.1525C33.2638 19.5946 33.1107 20.4019 32.3036 20.9587ZM30.5363 13.331C30.6337 13.331 30.7868 13.4006 30.8286 13.4841C31.4687 14.7368 32.0949 15.9896 32.7489 17.3119C31.4965 17.3119 30.3137 17.3119 29.1308 17.3119C29.0613 17.3119 28.9499 17.2423 28.9221 17.1727C28.4351 15.906 27.9619 14.6394 27.461 13.3171C28.5464 13.331 29.5483 13.3171 30.5363 13.331ZM10.8038 9.32232C10.0385 9.32232 9.84364 9.12745 9.84364 8.3619C9.84364 6.31579 9.84364 4.2836 9.84364 2.23749C9.84364 1.52762 10.0524 1.31883 10.7621 1.31883H30.258C30.9677 1.31883 31.1765 1.52762 31.1765 2.23749V8.40365C31.1765 9.11353 30.9677 9.32232 30.258 9.32232H10.8038ZM22.4791 18.6759C22.5905 19.6085 22.4374 20.4298 21.6164 20.9865C20.9206 21.4458 20.183 21.4598 19.4594 21.0144C18.5966 20.4715 18.4296 19.6364 18.5271 18.6759H22.4791ZM18.5966 17.298C18.7636 15.9756 18.9306 14.6672 19.0976 13.331H21.9225C22.0895 14.6533 22.2565 15.9617 22.4235 17.298H18.5966ZM15.2012 11.9669V10.6864H25.8189V11.9669H15.2012ZM10.0802 13.6372C10.2055 13.3867 10.3446 13.3032 10.6229 13.3171C11.5692 13.331 12.5294 13.331 13.5313 13.331C13.3087 13.9435 13.0999 14.5141 12.8912 15.0848C12.6407 15.739 12.4041 16.4071 12.1397 17.0613C12.098 17.1727 11.9449 17.3258 11.8475 17.3258C10.6786 17.3397 9.49575 17.3397 8.27116 17.3397C8.36857 17.117 8.45207 16.95 8.53556 16.7829C9.05045 15.7251 9.57924 14.6812 10.0802 13.6372ZM7.86761 18.6899H11.8197C11.931 19.6642 11.7501 20.4993 10.8873 21.0283C10.2055 21.4458 9.49575 21.4458 8.79996 21.0283C7.92327 20.4854 7.75628 19.6503 7.86761 18.6899ZM19.8212 35.9774H11.8336V27.5842C11.8336 26.8743 12.0423 26.6655 12.752 26.6655H19.8212V35.9774ZM29.1726 35.9774H21.1989V26.6655H27.7671C29.1448 26.6655 29.1726 26.6933 29.1726 28.0574V35.9774ZM35.8243 35.9635H30.5085V35.5181C30.5085 32.8456 30.5085 30.187 30.5085 27.5146C30.5085 26.1366 29.6875 25.3154 28.3098 25.3154H12.7242C11.3187 25.3154 10.5116 26.1227 10.5116 27.5424V35.9635H5.2097V22.7264C5.9194 22.281 6.57344 21.8634 7.26923 21.4319C7.88152 22.1696 8.75821 22.6568 9.84364 22.6568C10.9291 22.6568 11.7918 22.1975 12.5015 21.3345C13.1973 22.1696 14.074 22.6568 15.1595 22.6568C16.2588 22.6568 17.1355 22.1836 17.8313 21.3484C19.4733 23.2136 21.839 22.963 23.1888 21.3345C23.8846 22.1696 24.7613 22.6429 25.8467 22.6429C26.9322 22.6429 27.7949 22.1836 28.5046 21.3206C29.2004 22.1557 30.0771 22.6429 31.1625 22.6429C32.248 22.6429 33.1386 22.1696 33.8483 21.3067C34.3771 21.9748 35.0311 22.3923 35.8243 22.5872V35.9635Z" fill="#0078FF"/>
<path d="M19.168 5.99548C18.7088 5.99548 18.3052 5.99548 17.8321 5.99548C17.8321 6.48265 17.8321 6.98374 17.8321 7.47091C17.8321 7.63794 17.846 7.80497 17.8321 7.97199C17.8043 8.37565 17.5399 8.64011 17.178 8.65403C16.8023 8.66795 16.5101 8.37565 16.5101 7.95808C16.4962 7.23428 16.5101 6.51049 16.5101 5.7867C16.5101 4.78452 16.5101 3.78235 16.5101 2.79409C16.5101 2.293 16.7606 2.0007 17.1641 1.98678C17.5816 1.97286 17.846 2.27908 17.846 2.79409C17.846 3.39261 17.846 3.99113 17.846 4.61749C18.2774 4.61749 18.7088 4.61749 19.1819 4.61749C19.1819 3.97721 19.1819 3.32302 19.1819 2.68274C19.1819 2.37652 19.3211 2.11205 19.6133 2.04246C19.822 2.0007 20.0864 2.04246 20.2534 2.15381C20.3926 2.25125 20.49 2.50179 20.49 2.68274C20.5039 4.43654 20.5039 6.17643 20.49 7.93024C20.49 8.34781 20.1978 8.64011 19.822 8.62619C19.4463 8.62619 19.168 8.34781 19.168 7.91632C19.168 7.30388 19.168 6.67752 19.168 5.99548Z" fill="#0078FF"/>
<path d="M25.1644 5.3545C25.1644 5.79991 25.1783 6.24532 25.1644 6.69074C25.1366 7.80426 24.2599 8.66725 23.1605 8.66725C22.0751 8.66725 21.1845 7.79034 21.1706 6.67682C21.1567 5.77207 21.1567 4.86733 21.1706 3.97651C21.1845 2.86298 22.0751 2 23.1745 2C24.2599 2 25.1366 2.8769 25.1644 3.99043C25.1783 4.43584 25.1644 4.89517 25.1644 5.3545ZM23.8424 5.34058C23.8424 4.90909 23.8563 4.4776 23.8424 4.04611C23.8285 3.61461 23.578 3.33623 23.2023 3.32231C22.8126 3.30839 22.5204 3.6007 22.5204 4.04611C22.5065 4.89517 22.5065 5.74424 22.5204 6.5933C22.5204 7.02479 22.7848 7.30317 23.1605 7.31709C23.5502 7.33101 23.8285 7.03871 23.8424 6.5933C23.8424 6.17573 23.8424 5.75816 23.8424 5.34058Z" fill="#0078FF"/>
<path d="M13.822 1.98633C14.8796 1.98633 15.7841 2.83539 15.8258 3.87933C15.8398 4.2969 15.6032 4.60312 15.2275 4.64488C14.8657 4.68663 14.5734 4.43609 14.4899 4.01852C14.4064 3.54527 14.142 3.29472 13.7663 3.32256C13.4184 3.3504 13.154 3.65662 13.154 3.99068C13.154 4.38041 13.4323 4.61704 13.9055 4.64488C14.9492 4.72839 15.7424 5.50786 15.8119 6.51003C15.8815 7.51221 15.2136 8.37519 14.2255 8.5979C13.2793 8.80668 12.2912 8.26384 11.9573 7.34518C11.8738 7.12248 11.832 6.85801 11.832 6.62139C11.8459 6.25949 12.0686 6.02287 12.4304 5.99503C12.7922 5.96719 13.0288 6.16206 13.1262 6.51003C13.154 6.60747 13.1401 6.7049 13.1679 6.80234C13.2793 7.15031 13.5158 7.33126 13.8776 7.30342C14.2116 7.27558 14.476 6.98328 14.476 6.66314C14.476 6.28733 14.2673 6.06462 13.9194 5.99503C13.7107 5.95327 13.5019 5.95327 13.3071 5.89759C12.3469 5.64705 11.7068 4.70055 11.832 3.72622C11.9851 2.73796 12.834 2.00025 13.822 1.98633Z" fill="#0078FF"/>
<path d="M27.1696 5.98168C27.1696 6.6498 27.1696 7.26224 27.1696 7.86076C27.1696 8.34793 26.9053 8.64023 26.5017 8.64023C26.0981 8.64023 25.8477 8.33401 25.8477 7.84684C25.8477 6.14871 25.8477 4.4645 25.8477 2.76637C25.8477 2.22353 26.0842 1.9869 26.6269 1.97298C27.0583 1.97298 27.4897 1.95906 27.9211 1.97298C28.9787 2.01474 29.8276 2.89164 29.8415 3.93558C29.8554 5.00735 29.0065 5.91209 27.935 5.95384C27.6984 5.9956 27.4619 5.98168 27.1696 5.98168ZM27.1836 4.64545C27.6567 4.63153 28.1577 4.79856 28.3942 4.29747C28.4777 4.11652 28.4638 3.78247 28.3525 3.61544C28.0742 3.18394 27.601 3.33705 27.1836 3.35097C27.1836 3.78247 27.1836 4.18612 27.1836 4.64545Z" fill="#0078FF"/>
<path d="M19.1714 31.6767C19.1714 31.802 19.1853 31.9273 19.1714 32.0525C19.1297 32.4144 18.8374 32.6789 18.4895 32.6511C18.1277 32.6232 17.9051 32.4144 17.8494 32.0525C17.8216 31.8298 17.8355 31.6071 17.8355 31.3844C17.8494 30.9529 18.0999 30.6746 18.4756 30.6606C18.8653 30.6467 19.1436 30.939 19.1575 31.3844C19.1853 31.4819 19.1714 31.5793 19.1714 31.6767Z" fill="#0078FF"/>
<path d="M23.1601 31.6767C23.1601 31.802 23.174 31.9273 23.1601 32.0525C23.1044 32.4144 22.8818 32.6232 22.52 32.6511C22.1721 32.6789 21.8798 32.4144 21.852 32.0525C21.8242 31.8298 21.8381 31.6071 21.852 31.3844C21.8659 30.9529 22.1164 30.6746 22.506 30.6606C22.8957 30.6467 23.174 30.939 23.1879 31.3844C23.174 31.4819 23.174 31.5793 23.1601 31.6767C23.174 31.6767 23.1601 31.6767 23.1601 31.6767Z" fill="#0078FF"/>
</svg>
