<svg xmlns="http://www.w3.org/2000/svg" width="27.91" height="23.939" viewBox="0 0 27.91 23.939">
  <g id="Group_117289" data-name="Group 117289" transform="translate(-197.25 139.051)">
    <path id="Path_20895" data-name="Path 20895" d="M225.05-138.018a1.614,1.614,0,0,0-1.494-1.033q-12.351,0-24.7,0a1.613,1.613,0,0,0-1.494,1.032c-.036.091-.073.181-.109.272v21.327a.285.285,0,0,1,.045.066,1.62,1.62,0,0,0,1.7,1.24h17.017c.16,0,.321,0,.481,0h7.065a1.62,1.62,0,0,0,.871-.267,1.9,1.9,0,0,0,.735-1.039v-21.327C225.123-137.837,225.086-137.927,225.05-138.018Zm-6.763.267c0-.161.034-.218.209-.217,1.644.007,3.288,0,4.932.005a.573.573,0,0,1,.64.639c0,.444-.008.889.005,1.333.005.177-.06.208-.219.207-.89-.007-1.78,0-2.671,0s-1.78,0-2.671,0c-.179,0-.23-.049-.227-.227C218.3-136.59,218.3-137.17,218.288-137.751ZM198.335-136.1c.02-.371,0-.743.005-1.115,0-.572.18-.753.746-.753h10.329c2.5,0,5,0,7.495-.006.24,0,.307.056.3.3-.02.525-.018,1.052,0,1.577.008.24-.048.316-.306.315-2.507-.011-5.015-.007-7.522-.007h-1.608c-3.043,0-6.087,0-9.13.006C198.384-135.78,198.322-135.855,198.335-136.1Zm25.735,19.115c0,.609-.17.78-.775.78H199.087c-.566,0-.747-.183-.747-.753q0-8.718-.005-17.437c0-.239.048-.315.306-.315q12.565.011,25.13,0c.259,0,.305.078.3.315Q224.065-125.686,224.07-116.981Z" transform="translate(0)" fill="#9197a2"/>
    <path id="Path_20896" data-name="Path 20896" d="M262.931-49.227h-20c-.495,0-.677.179-.677.665q0,2.325,0,4.651c0,.488.182.668.675.668h20c.513,0,.691-.175.691-.679q0-2.312,0-4.624C263.62-49.052,263.443-49.227,262.931-49.227Zm-.4,4.656c0,.184-.039.245-.236.245q-9.36-.008-18.72,0c-.192,0-.242-.051-.24-.241.009-1.106.012-2.212,0-3.318,0-.231.082-.258.279-.258q4.66.008,9.319,0c3.1,0,6.195,0,9.292-.006.25,0,.313.064.31.311C262.522-46.747,262.526-45.659,262.534-44.571Z" transform="translate(-41.731 -83.296)" fill="#9197a2"/>
    <path id="Path_20897" data-name="Path 20897" d="M251.2,63.053h-8.31c-.452,0-.641.191-.641.646q0,2.339,0,4.677c0,.473.185.66.655.66h4.141q2.084,0,4.169,0c.432,0,.628-.2.628-.632q0-2.352,0-4.7C251.844,63.245,251.654,63.053,251.2,63.053Zm-.7,4.9c-1.153-.009-2.307,0-3.46,0s-2.307,0-3.46,0c-.186,0-.247-.04-.245-.237q.015-1.672,0-3.344c0-.2.06-.237.245-.236q3.46.009,6.92,0c.2,0,.261.04.259.25q-.017,1.658,0,3.317C250.763,67.914,250.7,67.955,250.5,67.953Z" transform="translate(-41.73 -187.414)" fill="#9197a2"/>
    <path id="Path_20898" data-name="Path 20898" d="M413.2,63.053h-8.31c-.452,0-.642.191-.642.645q0,2.339,0,4.677c0,.473.185.661.654.661h4.114q2.1,0,4.2,0c.433,0,.628-.2.629-.632q0-2.352,0-4.7C413.844,63.245,413.654,63.053,413.2,63.053Zm-.7,4.9c-1.162-.011-2.325-.005-3.487-.005-1.135,0-2.27-.007-3.405.006-.233,0-.281-.066-.279-.287.012-1.1.01-2.193,0-3.29,0-.188.044-.243.239-.243q3.474.01,6.947,0c.2,0,.238.059.237.245q-.013,1.658,0,3.317C412.762,67.9,412.715,67.956,412.507,67.954Z" transform="translate(-191.956 -187.414)" fill="#9197a2"/>
  </g>
</svg>
