<svg width="40" height="31" viewBox="0 0 40 31" fill="none" xmlns="http://www.w3.org/2000/svg">
<path d="M36.6469 30.8802H3.32673C1.49175 30.8802 0 29.6602 0 28.1602V4.26023C0 3.28023 0.976898 2.49023 2.17822 2.49023H37.8218C39.0231 2.49023 40 3.29023 40 4.26023V28.1602C39.9868 29.6602 38.4818 30.8802 36.6469 30.8802ZM2.16502 3.83023C1.87459 3.83023 1.63696 4.02023 1.63696 4.26023V28.1602C1.63696 28.9102 2.38944 29.5302 3.31353 29.5302H36.6469C37.571 29.5302 38.3234 28.9202 38.3234 28.1602V4.26023C38.3234 4.02023 38.0858 3.83023 37.7954 3.83023H2.16502Z" fill="#0078FF"/>
<path d="M29.9683 8.94922H0.488281V10.0092H29.9683V8.94922Z" fill="#0078FF"/>
<path d="M30.2797 10.3394H0.179688V8.60938H30.2797V10.3394ZM0.799687 9.66938H29.6497V9.28938H0.799687V9.66938Z" fill="#0078FF"/>
<path d="M4.04906 6.24094C3.35906 6.24094 2.78906 5.68094 2.78906 4.98094V1.72094C2.78906 1.03094 3.34906 0.460938 4.04906 0.460938C4.73906 0.460938 5.30906 1.02094 5.30906 1.72094V4.99094C5.30906 5.68094 4.73906 6.24094 4.04906 6.24094Z" fill="#0078FF"/>
<path d="M4.04937 6.72C3.11937 6.72 2.35938 5.9 2.35938 4.9V1.82C2.35938 0.81 3.11937 0 4.04937 0C4.97937 0 5.73938 0.82 5.73938 1.82V4.89C5.73938 5.9 4.97937 6.72 4.04937 6.72ZM4.04937 0.94C3.59937 0.94 3.22937 1.34 3.22937 1.82V4.89C3.22937 5.38 3.59937 5.77 4.04937 5.77C4.49937 5.77 4.86937 5.37 4.86937 4.89V1.82C4.86937 1.33 4.49937 0.94 4.04937 0.94Z" fill="#0078FF"/>
<path d="M18.8108 6.24094C18.1208 6.24094 17.5508 5.68094 17.5508 4.98094V1.72094C17.5508 1.03094 18.1108 0.460938 18.8108 0.460938C19.5008 0.460938 20.0708 1.02094 20.0708 1.72094V4.99094C20.0708 5.68094 19.5008 6.24094 18.8108 6.24094Z" fill="#0078FF"/>
<path d="M18.8111 6.72C17.8811 6.72 17.1211 5.9 17.1211 4.9V1.82C17.1211 0.81 17.8811 0 18.8111 0C19.7411 0 20.5011 0.82 20.5011 1.82V4.89C20.5011 5.9 19.7411 6.72 18.8111 6.72ZM18.8111 0.94C18.3611 0.94 17.9911 1.34 17.9911 1.82V4.89C17.9911 5.38 18.3611 5.77 18.8111 5.77C19.2611 5.77 19.6311 5.37 19.6311 4.89V1.82C19.6311 1.33 19.2611 0.94 18.8111 0.94Z" fill="#0078FF"/>
<path d="M26.4084 6.24094C25.7184 6.24094 25.1484 5.68094 25.1484 4.98094V1.72094C25.1484 1.03094 25.7084 0.460938 26.4084 0.460938C27.0984 0.460938 27.6684 1.02094 27.6684 1.72094V4.99094C27.6684 5.68094 27.1084 6.24094 26.4084 6.24094Z" fill="#0078FF"/>
<path d="M26.4088 6.72C25.4788 6.72 24.7188 5.9 24.7188 4.9V1.82C24.7188 0.81 25.4788 0 26.4088 0C27.3388 0 28.0987 0.82 28.0987 1.82V4.89C28.1087 5.9 27.3488 6.72 26.4088 6.72ZM26.4088 0.94C25.9588 0.94 25.5888 1.34 25.5888 1.82V4.89C25.5888 5.38 25.9588 5.77 26.4088 5.77C26.8588 5.77 27.2288 5.37 27.2288 4.89V1.82C27.2288 1.33 26.8588 0.94 26.4088 0.94Z" fill="#0078FF"/>
<path d="M11.4983 6.24094C10.8083 6.24094 10.2383 5.68094 10.2383 4.98094V1.72094C10.2383 1.03094 10.7983 0.460938 11.4983 0.460938C12.1883 0.460938 12.7583 1.02094 12.7583 1.72094V4.99094C12.7583 5.68094 12.1983 6.24094 11.4983 6.24094Z" fill="#0078FF"/>
<path d="M11.4986 6.72C10.5686 6.72 9.80859 5.9 9.80859 4.9V1.82C9.80859 0.81 10.5686 0 11.4986 0C12.4286 0 13.1886 0.82 13.1886 1.82V4.89C13.1986 5.9 12.4386 6.72 11.4986 6.72ZM11.4986 0.94C11.0486 0.94 10.6786 1.34 10.6786 1.82V4.89C10.6786 5.38 11.0486 5.77 11.4986 5.77C11.9486 5.77 12.3186 5.37 12.3186 4.89V1.82C12.3186 1.33 11.9486 0.94 11.4986 0.94Z" fill="#0078FF"/>
<path d="M10.8101 22.5108C9.8001 22.5108 7.7601 20.8808 7.0701 20.2908C6.2501 19.6008 3.6101 17.2708 4.2301 16.4008C4.4801 16.0608 5.00009 16.1308 5.92009 16.6408C6.65009 17.0408 7.5301 17.6708 8.42009 18.4208C9.2401 19.1108 11.8801 21.4408 11.2601 22.3108C11.1601 22.4508 11.0001 22.5108 10.8101 22.5108ZM4.80009 16.8908C4.98009 17.3108 5.82009 18.3908 7.46009 19.7708C9.10009 21.1508 10.2801 21.7508 10.7001 21.8408C10.5201 21.4208 9.68009 20.3408 8.04009 18.9608C6.40009 17.5808 5.22009 16.9808 4.80009 16.8908Z" fill="#0078FF"/>
<path d="M4.34721 17.0996L2.88721 25.5296C2.84721 25.7896 3.08721 25.9896 3.30721 25.8896L10.5872 22.4496C10.5772 22.4396 6.42721 19.6496 4.34721 17.0996Z" fill="#0078FF"/>
<path d="M3.17826 26.1104C3.06826 26.1104 2.95826 26.0704 2.87826 26.0004C2.73826 25.8804 2.66826 25.6804 2.69826 25.4904L4.22826 16.6504L4.47826 16.9604C6.51826 19.4604 10.6283 22.2304 10.6683 22.2604L10.9683 22.4604L3.35826 26.0604C3.30826 26.1004 3.24826 26.1104 3.17826 26.1104ZM4.45826 17.5404L3.06826 25.5704C3.05826 25.6404 3.08826 25.6704 3.10826 25.6904C3.12826 25.7004 3.16826 25.7304 3.22826 25.7104L10.1883 22.4204C9.23826 21.7404 6.25826 19.5904 4.45826 17.5404Z" fill="#0078FF"/>
<path d="M8.57052 18.39C8.46052 18.39 8.36052 18.31 8.33052 18.19C8.30052 18.05 8.38052 17.9 8.51052 17.86C10.6005 17.3 10.9705 14.05 10.9705 14.02C10.9905 13.87 11.1105 13.77 11.2505 13.78C11.3905 13.8 11.4905 13.93 11.4705 14.08C11.4505 14.23 11.0605 17.74 8.63052 18.38C8.61052 18.39 8.59052 18.39 8.57052 18.39Z" fill="#0078FF"/>
<path d="M10.681 19.4101C10.631 19.4101 10.581 19.3901 10.531 19.3601C10.421 19.2701 10.391 19.1001 10.471 18.9801C11.711 17.1501 14.351 17.9201 14.471 17.9601C14.601 18.0001 14.681 18.1501 14.641 18.2901C14.601 18.4301 14.461 18.5201 14.331 18.4801C14.311 18.4701 11.901 17.7701 10.871 19.3001C10.841 19.3801 10.761 19.4101 10.681 19.4101Z" fill="#0078FF"/>
<path d="M12.8518 14.3193L12.6918 14.0793C12.6818 14.0693 12.6718 14.0593 12.6618 14.0593H12.3818C12.3518 14.0593 12.3318 14.0193 12.3518 13.9993L12.5218 13.7593C12.5318 13.7493 12.5318 13.7393 12.5318 13.7193L12.4418 13.4293C12.4318 13.3993 12.4618 13.3693 12.4918 13.3793L12.7618 13.4793C12.7718 13.4793 12.7818 13.4793 12.7918 13.4693L13.0218 13.2893C13.0418 13.2693 13.0818 13.2893 13.0818 13.3193V13.6193C13.0818 13.6293 13.0918 13.6493 13.1018 13.6493L13.3318 13.8293C13.3618 13.8493 13.3518 13.8893 13.3218 13.8993L13.0518 13.9893C13.0418 13.9893 13.0318 13.9993 13.0318 14.0193L12.9518 14.3093C12.9118 14.3493 12.8718 14.3493 12.8518 14.3193Z" fill="#0078FF"/>
<path d="M12.8806 14.4798C12.8306 14.4798 12.7806 14.4498 12.7506 14.4098L12.6106 14.1998H12.3706C12.3006 14.1998 12.2506 14.1598 12.2206 14.0998C12.1906 14.0398 12.2006 13.9698 12.2406 13.9198L12.3806 13.7198L12.3006 13.4798C12.2806 13.4198 12.3006 13.3498 12.3406 13.2998C12.3806 13.2498 12.4506 13.2398 12.5106 13.2598L12.7306 13.3398L12.9206 13.1898C12.9706 13.1498 13.0406 13.1398 13.0906 13.1698C13.1506 13.1998 13.1806 13.2598 13.1806 13.3298V13.5798L13.3706 13.7298C13.4206 13.7698 13.4506 13.8298 13.4406 13.8998C13.4306 13.9698 13.3906 14.0198 13.3306 14.0398L13.1006 14.1198L13.0306 14.3598C13.0106 14.4198 12.9606 14.4698 12.9006 14.4798C12.9006 14.4798 12.8906 14.4798 12.8806 14.4798ZM12.6606 13.9198C12.7106 13.9198 12.7606 13.9498 12.7906 13.9898L12.8506 14.0798L12.8806 13.9698C12.9006 13.9198 12.9406 13.8698 12.9906 13.8598L13.0906 13.8298L13.0106 13.7698C12.9706 13.7398 12.9406 13.6798 12.9406 13.6298V13.5198L12.8606 13.5898C12.8206 13.6198 12.7606 13.6298 12.7106 13.6198L12.6106 13.5798L12.6406 13.6898C12.6606 13.7398 12.6506 13.7998 12.6206 13.8498L12.5606 13.9398L12.6606 13.9198Z" fill="#0078FF"/>
<path d="M12.551 16.8898L12.391 16.6398C12.381 16.6298 12.371 16.6198 12.361 16.6198H12.081C12.051 16.6198 12.031 16.5798 12.051 16.5598L12.221 16.3198C12.231 16.3098 12.231 16.2998 12.231 16.2798L12.141 15.9898C12.131 15.9598 12.161 15.9298 12.191 15.9398L12.461 16.0398C12.471 16.0398 12.481 16.0398 12.491 16.0298L12.721 15.8498C12.741 15.8298 12.781 15.8498 12.781 15.8798V16.1798C12.781 16.1898 12.791 16.2098 12.801 16.2098L13.031 16.3898C13.061 16.4098 13.051 16.4498 13.021 16.4598L12.751 16.5498C12.741 16.5498 12.731 16.5598 12.731 16.5798L12.651 16.8698C12.611 16.9098 12.571 16.9198 12.551 16.8898Z" fill="#0078FF"/>
<path d="M12.5805 17.0501C12.5305 17.0501 12.4805 17.0201 12.4505 16.9801L12.3105 16.7701H12.0705C12.0105 16.7701 11.9505 16.7301 11.9205 16.6701C11.8905 16.6101 11.9005 16.5401 11.9305 16.4901L12.0705 16.2901L11.9905 16.0501C11.9705 15.9901 11.9805 15.9201 12.0305 15.8701C12.0705 15.8201 12.1405 15.8101 12.2005 15.8301L12.4205 15.9101L12.6105 15.7601C12.6605 15.7201 12.7305 15.7101 12.7805 15.7401C12.8405 15.7701 12.8705 15.8301 12.8705 15.9001V16.1501L13.0605 16.3001C13.1105 16.3401 13.1405 16.4001 13.1305 16.4701C13.1205 16.5401 13.0805 16.5901 13.0205 16.6101L12.7905 16.6901L12.7205 16.9301C12.7005 16.9901 12.6505 17.0401 12.5905 17.0501C12.6005 17.0401 12.5905 17.0501 12.5805 17.0501ZM12.3605 16.4901C12.4105 16.4901 12.4605 16.5201 12.4905 16.5601L12.5505 16.6501L12.5805 16.5401C12.6005 16.4801 12.6405 16.4401 12.6905 16.4201L12.7905 16.3901L12.7105 16.3301C12.6705 16.3001 12.6405 16.2401 12.6405 16.1801V16.0701L12.5605 16.1401C12.5205 16.1701 12.4605 16.1801 12.4105 16.1701L12.3105 16.1301L12.3405 16.2401C12.3605 16.2901 12.3505 16.3501 12.3205 16.4001L12.2605 16.4901H12.3605Z" fill="#0078FF"/>
<path d="M7.84103 16.6315L7.35103 15.8915C7.33103 15.8615 7.29103 15.8415 7.26103 15.8415L6.41103 15.8515C6.32103 15.8515 6.26103 15.7415 6.32103 15.6615L6.83103 14.9315C6.85103 14.9015 6.86103 14.8615 6.85103 14.8215L6.58103 13.9615C6.55103 13.8715 6.63103 13.7715 6.72103 13.8115L7.52103 14.1015C7.55103 14.1115 7.59103 14.1115 7.62103 14.0815L8.30103 13.5415C8.37103 13.4815 8.48103 13.5415 8.48103 13.6415L8.47103 14.5515C8.47103 14.5915 8.49103 14.6315 8.52103 14.6515L9.21103 15.1815C9.29103 15.2415 9.27103 15.3615 9.18103 15.3915L8.37103 15.6615C8.33103 15.6715 8.31103 15.7015 8.30103 15.7415L8.05103 16.6115C8.01103 16.6915 7.89103 16.7115 7.84103 16.6315Z" fill="#0078FF"/>
<path d="M7.93046 16.8209C7.85046 16.8209 7.78046 16.7809 7.74046 16.7109L7.25046 15.9709L6.41046 15.9909C6.32046 15.9909 6.24046 15.9409 6.20046 15.8509C6.16046 15.7609 6.17046 15.6609 6.22046 15.5809L6.73046 14.8509L6.46046 14.0009C6.43046 13.9109 6.45046 13.8109 6.52046 13.7409C6.58046 13.6709 6.68046 13.6509 6.76046 13.6809L7.56046 13.9709L8.23046 13.4309C8.30046 13.3709 8.40046 13.3609 8.48046 13.4109C8.56046 13.4509 8.61046 13.5409 8.61046 13.6409L8.60046 14.5509L9.28046 15.0709C9.35046 15.1309 9.39046 15.2209 9.38046 15.3209C9.37046 15.4209 9.30046 15.4909 9.22046 15.5209L8.41046 15.7909L8.17046 16.6509C8.14046 16.7409 8.07046 16.8109 7.98046 16.8309C7.95046 16.8109 7.94046 16.8209 7.93046 16.8209ZM7.26046 15.7009C7.34046 15.7009 7.41046 15.7409 7.45046 15.8109L7.92046 16.5309L8.16046 15.6909C8.18046 15.6109 8.24046 15.5509 8.32046 15.5209L9.10046 15.2609L8.43046 14.7509C8.37046 14.7009 8.33046 14.6209 8.33046 14.5409L8.34046 13.6609L7.68046 14.1909C7.62046 14.2409 7.54046 14.2509 7.46046 14.2309L6.68046 13.9509L6.94046 14.7909C6.96046 14.8709 6.95046 14.9609 6.91046 15.0209L6.42046 15.7309L7.26046 15.7009Z" fill="#0078FF"/>
<path d="M22.9185 16.3706C22.1885 16.3606 21.6785 15.8406 21.6685 15.1006C21.6585 14.7006 21.6685 14.3106 21.6685 13.9106C21.6685 13.5006 21.6585 13.0906 21.6685 12.6806C21.6885 11.9906 22.1985 11.4706 22.8885 11.4606C23.7085 11.4506 24.5285 11.4506 25.3385 11.4606C26.0485 11.4706 26.5585 12.0006 26.5685 12.7106C26.5785 13.5106 26.5785 14.3206 26.5685 15.1206C26.5585 15.8306 26.0385 16.3506 25.3285 16.3606C24.5285 16.3806 23.7285 16.3806 22.9185 16.3706Z" fill="#0078FF"/>
<path d="M22.9302 22.2007C22.1902 22.1907 21.6902 21.6707 21.6802 20.9307C21.6702 20.5307 21.6802 20.1407 21.6802 19.7407C21.6802 19.3307 21.6702 18.9207 21.6802 18.5107C21.7002 17.8207 22.2102 17.3007 22.9002 17.2907C23.7202 17.2807 24.5402 17.2807 25.3502 17.2907C26.0602 17.3007 26.5702 17.8207 26.5802 18.5407C26.5902 19.3407 26.5902 20.1507 26.5802 20.9507C26.5702 21.6607 26.0502 22.1807 25.3402 22.1907C24.5402 22.2107 23.7302 22.2107 22.9302 22.2007Z" fill="#0078FF"/>
<path d="M24.1116 28.0305C23.7116 28.0305 23.3216 28.0405 22.9216 28.0305C22.2016 28.0105 21.6816 27.5105 21.6716 26.8005C21.6616 25.9805 21.6616 25.1605 21.6716 24.3505C21.6816 23.6605 22.2016 23.1405 22.8916 23.1305C23.7116 23.1205 24.5316 23.1205 25.3416 23.1305C26.0316 23.1405 26.5616 23.6605 26.5716 24.3405C26.5816 25.1705 26.5816 26.0005 26.5716 26.8305C26.5616 27.5005 26.0416 28.0105 25.3716 28.0305C24.9516 28.0405 24.5316 28.0305 24.1116 28.0305Z" fill="#0078FF"/>
<path d="M16.7509 16.3702C16.0609 16.3602 15.5509 15.8402 15.5309 15.1502C15.5209 14.3302 15.5209 13.5202 15.5309 12.7002C15.5409 12.0102 16.0609 11.4902 16.7409 11.4802C17.5709 11.4702 18.4009 11.4702 19.2309 11.4802C19.9009 11.4902 20.4109 12.0202 20.4309 12.6802C20.4409 13.1002 20.4309 13.5202 20.4309 13.9402C20.4309 14.3402 20.4409 14.7302 20.4309 15.1302C20.4109 15.8402 19.9109 16.3602 19.1909 16.3702C18.3909 16.3802 17.5709 16.3802 16.7509 16.3702Z" fill="#0078FF"/>
<path d="M16.7588 22.2005C16.0688 22.1805 15.5488 21.6705 15.5387 20.9805C15.5288 20.1605 15.5288 19.3505 15.5387 18.5305C15.5488 17.8205 16.0688 17.3105 16.7888 17.3005C17.5888 17.2905 18.3987 17.2905 19.1987 17.3005C19.9087 17.3105 20.4287 17.8305 20.4387 18.5405C20.4488 19.3405 20.4488 20.1505 20.4387 20.9505C20.4287 21.6805 19.9088 22.1905 19.1688 22.2005C18.7688 22.2105 18.3788 22.2005 17.9788 22.2005C17.5788 22.2005 17.1688 22.2105 16.7588 22.2005Z" fill="#0078FF"/>
<path d="M16.7588 28.0305C16.0688 28.0205 15.5488 27.5005 15.5387 26.8105C15.5288 25.9905 15.5288 25.1705 15.5387 24.3605C15.5488 23.6505 16.0688 23.1405 16.7888 23.1305C17.5888 23.1205 18.3987 23.1205 19.1987 23.1305C19.9087 23.1405 20.4287 23.6605 20.4387 24.3705C20.4488 24.7805 20.4387 25.1905 20.4387 25.6005C20.4387 26.0005 20.4488 26.3905 20.4387 26.7905C20.4287 27.5105 19.9187 28.0305 19.2088 28.0405C18.3988 28.0405 17.5788 28.0405 16.7588 28.0305Z" fill="#0078FF"/>
</svg>
