<?xml version="1.0" encoding="utf-8"?>
<!-- Generator: Adobe Illustrator 24.0.0, SVG Export Plug-In . SVG Version: 6.00 Build 0)  -->
<svg version="1.1" id="Layer_1" xmlns="http://www.w3.org/2000/svg" xmlns:xlink="http://www.w3.org/1999/xlink" x="0px" y="0px"
	 viewBox="0 0 22.6 25.2" style="enable-background:new 0 0 22.6 25.2;" xml:space="preserve">
<style type="text/css">
	.st0{fill:#9197A2;}
</style>
<g id="Group_117251" transform="translate(-162.147 -1020.337)">
	<g id="Path_20890" transform="translate(125.647 1021.833)">
		<path class="st0" d="M59.1,10.4c0-1.1-0.5-2.1-1.2-2.9l-8.2-8.2c-0.5-0.5-1.2-0.8-1.9-0.8c-0.7,0-1.4,0.3-1.9,0.8l-8.2,8.2l0,0.1
			c-0.7,0.8-1.1,1.8-1.2,2.8c0,0,0,0.1,0,0.1V21c0,1.5,1.2,2.7,2.7,2.7h17.3c1.5,0,2.7-1.2,2.7-2.7L59.1,10.4L59.1,10.4z M57.6,21
			c0,0.7-0.5,1.2-1.2,1.2H39.2c-0.6,0-1.2-0.5-1.2-1.2v-7.2c2.1,1.4,4.4,2.6,6.8,3.4c2.8,0.9,5.7,1.4,8.6,1.4h0
			c1.4,0,2.8-0.1,4.2-0.3V21z M57.4,16.5c-1.3,0.2-2.7,0.3-4,0.3h0c-5.2,0-10.3-1.7-14.5-4.8L38,11.4v-0.9c0-0.7,0.3-1.4,0.8-2
			L47,0.3c0.5-0.5,1.2-0.5,1.7,0l8.2,8.2c0.5,0.6,0.8,1.3,0.8,2v6L57.4,16.5z"/>
	</g>
	<g id="Path_20891" transform="translate(125.647 988.395)">
		<path class="st0" d="M36.5,43.7v0.2C36.5,43.8,36.5,43.8,36.5,43.7L36.5,43.7z"/>
	</g>
</g>
</svg>
