<svg width="24" height="24" viewBox="0 0 24 24" fill="none" xmlns="http://www.w3.org/2000/svg">
    <path d="M12.6068 3.46337C12.2485 3.18977 11.7515 3.18972 11.3931 3.46325L6 7.58V7C6 6.44771 5.55228 6 5 6C4.44772 6 4 6.44772 4 7V9.11L1.79243 10.7951C1.35459 11.1293 1.27015 11.755 1.60372 12.1933C1.93829 12.633 2.56629 12.7173 3.00501 12.3815L4 11.62V20C4 20.5523 4.44772 21 5 21H19C19.5523 21 20 20.5523 20 20V11.62L20.9998 12.3796C21.4367 12.7116 22.0598 12.6277 22.3934 12.1921C22.7283 11.7548 22.6448 11.1288 22.2071 10.7945L12.6068 3.46337ZM18 19H13V16C13 15.4477 12.5523 15 12 15C11.4477 15 11 15.4477 11 16V19H6V10.1L11.3932 5.98316C11.7515 5.70967 12.2485 5.70967 12.6068 5.98316L18 10.1V19ZM9 1C9.55229 1 10.0164 1.45995 9.83632 1.98205C9.43066 3.158 8.31587 4 7 4C6.80182 4 6.61662 4.05843 6.46078 4.1589C5.99662 4.45818 5.55228 5 5 5C4.44772 5 3.98357 4.54005 4.16368 4.01795C4.56934 2.842 5.68413 2 7 2C7.19818 2 7.38338 1.94157 7.53922 1.8411C8.00338 1.54182 8.44772 1 9 1Z" fill="#204ECF" />
</svg>
    