<svg width="44" height="44" viewBox="0 0 44 44" fill="none" xmlns="http://www.w3.org/2000/svg">
	<path d="M20.9058 12.0031C21.2306 12.0025 21.593 12.0031 22.0001 12.0031C25.2571 12.0031 25.6431 12.0147 26.9293 12.0732C28.1186 12.1276 28.7641 12.3263 29.1941 12.4933C29.7634 12.7145 30.1692 12.9788 30.5959 13.4058C31.0229 13.8328 31.2872 14.2394 31.5088 14.8088C31.6757 15.2383 31.8747 15.8839 31.9288 17.0734C31.9873 18.3595 32 18.7458 32 22.0017C32 25.2575 31.9873 25.6438 31.9288 26.9299C31.8745 28.1194 31.6757 28.765 31.5088 29.1945C31.2877 29.7639 31.0229 30.1692 30.5959 30.596C30.169 31.023 29.7636 31.2873 29.1941 31.5084C28.7646 31.6762 28.1186 31.8744 26.9293 31.9288C25.6434 31.9873 25.2571 32 22.0001 32C18.7429 32 18.3569 31.9873 17.071 31.9288C15.8816 31.8739 15.2361 31.6752 14.8059 31.5082C14.2366 31.2871 13.83 31.0227 13.4031 30.5957C12.9761 30.1687 12.7118 29.7631 12.4902 29.1935C12.3233 28.764 12.1243 28.1184 12.0701 26.9289C12.0117 25.6428 12 25.2565 12 21.9986C12 18.7407 12.0117 18.3564 12.0701 17.0703C12.1245 15.8808 12.3233 15.2353 12.4902 14.8052C12.7113 14.2359 12.9761 13.8292 13.4031 13.4022C13.83 12.9752 14.2366 12.7109 14.8059 12.4893C15.2359 12.3215 15.8816 12.1233 17.071 12.0686C18.1963 12.0178 18.6324 12.0025 20.9058 12V12.0031Z" fill="#0078ff" />
	<path fill-rule="evenodd" clip-rule="evenodd" d="M22 0C9.84974 0 0 9.84974 0 22C0 34.1503 9.84974 44 22 44C34.1503 44 44 34.1503 44 22C44 9.84974 34.1503 0 22 0ZM17.1629 10.3375C18.4145 10.2805 18.8144 10.2666 22.001 10.2666H21.9974C25.185 10.2666 25.5834 10.2805 26.835 10.3375C28.0841 10.3947 28.9372 10.5924 29.6852 10.8826C30.4577 11.1821 31.1103 11.5829 31.763 12.2356C32.4157 12.8878 32.8166 13.5424 33.1173 14.3142C33.4057 15.0602 33.6037 15.9128 33.6624 17.162C33.7186 18.4135 33.7333 18.8134 33.7333 22.0001C33.7333 25.1867 33.7186 25.5856 33.6624 26.8372C33.6037 28.0858 33.4057 28.9387 33.1173 29.685C32.8166 30.4565 32.4157 31.1111 31.763 31.7633C31.1111 32.4159 30.4574 32.8178 29.686 33.1175C28.9394 33.4077 28.0858 33.6054 26.8367 33.6626C25.5851 33.7196 25.1864 33.7335 21.9996 33.7335C18.8132 33.7335 18.4135 33.7196 17.162 33.6626C15.9131 33.6054 15.0602 33.4077 14.3137 33.1175C13.5424 32.8178 12.8878 32.4159 12.2359 31.7633C11.5834 31.1111 11.1825 30.4565 10.8826 29.6847C10.5927 28.9387 10.3949 28.0861 10.3375 26.8369C10.2808 25.5854 10.2666 25.1867 10.2666 22.0001C10.2666 18.8134 10.2813 18.4133 10.3372 17.1617C10.3935 15.9131 10.5915 15.0602 10.8824 14.3139C11.183 13.5424 11.5839 12.8878 12.2366 12.2356C12.8888 11.5832 13.5434 11.1823 14.3151 10.8826C15.0612 10.5924 15.9138 10.3947 17.1629 10.3375Z" fill="#0078ff" />
	<path fill-rule="evenodd" clip-rule="evenodd" d="M26.8563 15.7366C26.8563 14.959 27.487 14.3291 28.2643 14.3291C29.0416 14.3291 29.6723 14.9593 29.6723 15.7366C29.6723 16.514 29.0416 17.1446 28.2643 17.1446C27.487 17.1446 26.8563 16.514 26.8563 15.7366ZM15.9755 21.9998C15.9755 18.6722 18.6734 15.9742 22.0011 15.9742H22.0008C25.3285 15.9742 28.0257 18.6722 28.0257 21.9998C28.0257 25.3275 25.3287 28.0242 22.0011 28.0242C18.6734 28.0242 15.9755 25.3275 15.9755 21.9998Z" fill="white" />
	<path d="M22.0011 18.0889C24.1611 18.0889 25.9123 19.8398 25.9123 22C25.9123 24.16 24.1611 25.9112 22.0011 25.9112C19.8409 25.9112 18.09 24.16 18.09 22C18.09 19.8398 19.8409 18.0889 22.0011 18.0889Z" fill="#0078ff" />
</svg>
