<svg xmlns="http://www.w3.org/2000/svg" width="27.955" height="26" viewBox="0 0 27.955 26">
  <g id="Group_117254" data-name="Group 117254" transform="translate(-272.5 85.078)">
    <path id="Path_20892" data-name="Path 20892" d="M300.455-74.53c-.354.536-.687.593-1.218.206l-1.674-1.218v.366q0,7.193,0,14.385a1.646,1.646,0,0,1-1.314,1.677,1.7,1.7,0,0,1-.378.034q-9.39,0-18.78,0a1.645,1.645,0,0,1-1.7-1.708q0-7.179,0-14.358v-.326c-.095-.036-.141.034-.2.074-.494.356-.986.716-1.479,1.073-.534.387-.863.33-1.218-.206v-.437a2.267,2.267,0,0,1,.549-.509q6.475-4.7,12.946-9.405a.694.694,0,0,1,.988.018q6.55,4.757,13.1,9.512a3.028,3.028,0,0,1,.37.384ZM286.477-60.388H295.7c.434,0,.547-.114.547-.549q0-7.644,0-15.288a.461.461,0,0,0-.212-.427q-4.662-3.377-9.311-6.769a.357.357,0,0,0-.509,0q-4.648,3.393-9.31,6.768a.46.46,0,0,0-.213.426q.008,7.63,0,15.26c0,.473.1.576.574.576Z" fill="#9197a2"/>
    <path id="Path_20893" data-name="Path 20893" d="M297.722-62.892a6.773,6.773,0,0,1,6.756,6.771,6.764,6.764,0,0,1-6.787,6.736,6.764,6.764,0,0,1-6.742-6.781A6.774,6.774,0,0,1,297.722-62.892Zm5.424,6.746a5.427,5.427,0,0,0-5.484-5.421,5.431,5.431,0,0,0-5.382,5.441,5.443,5.443,0,0,0,5.511,5.428A5.449,5.449,0,0,0,303.146-56.147Z" transform="translate(-11.236 -13.512)" fill="#9197a2"/>
    <path id="Path_20894" data-name="Path 20894" d="M303.284-53.132c0,.328.014.656-.005.982-.013.215.066.255.262.251.663-.011,1.328-.008,1.992,0a.662.662,0,0,1,.637.391.628.628,0,0,1-.086.69.736.736,0,0,1-.634.253c-.637,0-1.273.008-1.91,0-.2,0-.265.045-.261.255.014.654.007,1.31,0,1.965a.647.647,0,0,1-.65.715.645.645,0,0,1-.658-.706c0-.628,0-1.255,0-1.883,0-.374.061-.34-.355-.341-.619,0-1.237.009-1.855,0a.666.666,0,0,1-.655-.98.7.7,0,0,1,.662-.353c.655,0,1.31-.007,1.965,0,.189,0,.247-.047.244-.241-.012-.664-.007-1.328,0-1.992a.666.666,0,0,1,.663-.711.666.666,0,0,1,.645.7C303.286-53.8,303.284-53.468,303.284-53.132Z" transform="translate(-16.152 -18.414)" fill="#9197a2"/>
  </g>
</svg>
