<svg width="24" height="24" viewBox="0 0 24 24" fill="none" xmlns="http://www.w3.org/2000/svg">
<path d="M20.25 11.25H3.75C3.55109 11.25 3.36032 11.3027 3.21967 11.3964C3.07902 11.4902 3 11.6174 3 11.75C3 11.8826 3.07902 12.0098 3.21967 12.1036C3.36032 12.1973 3.55109 12.25 3.75 12.25H20.25C20.4489 12.25 20.6397 12.1973 20.7803 12.1036C20.921 12.0098 21 11.8826 21 11.75C21 11.6174 20.921 11.4902 20.7803 11.3964C20.6397 11.3027 20.4489 11.25 20.25 11.25Z" fill="#111111"/>
<path d="M3.75 6.25H20.25C20.4489 6.25 20.6397 6.19732 20.7803 6.10355C20.921 6.00979 21 5.88261 21 5.75C21 5.61739 20.921 5.49021 20.7803 5.39645C20.6397 5.30268 20.4489 5.25 20.25 5.25H3.75C3.55109 5.25 3.36032 5.30268 3.21967 5.39645C3.07902 5.49021 3 5.61739 3 5.75C3 5.88261 3.07902 6.00979 3.21967 6.10355C3.36032 6.19732 3.55109 6.25 3.75 6.25Z" fill="#111111"/>
<path d="M20.25 17.25H3.75C3.55109 17.25 3.36032 17.3027 3.21967 17.3964C3.07902 17.4902 3 17.6174 3 17.75C3 17.8826 3.07902 18.0098 3.21967 18.1036C3.36032 18.1973 3.55109 18.25 3.75 18.25H20.25C20.4489 18.25 20.6397 18.1973 20.7803 18.1036C20.921 18.0098 21 17.8826 21 17.75C21 17.6174 20.921 17.4902 20.7803 17.3964C20.6397 17.3027 20.4489 17.25 20.25 17.25Z" fill="#111111"/>
</svg>
