<svg width="24" height="24" viewBox="0 0 24 24" fill="none" xmlns="http://www.w3.org/2000/svg">
<path d="M23.8696 8.94749C23.6348 8.16488 23.1652 7.53879 22.4609 7.17358C21.5739 6.70401 20.5304 6.75618 19.8 6.88662L18.287 1.53879C18.1826 1.17358 17.8957 0.886619 17.5304 0.808358C17.1652 0.730098 16.7739 0.834445 16.5131 1.1214C12.7826 5.29531 11.2435 6.31271 7.12175 8.11271L3.88697 9.05184C1.04349 9.86053 -0.599985 12.8866 0.20871 15.7301C0.600015 17.1127 1.51306 18.2866 2.79132 18.991C3.60001 19.4344 4.48697 19.6692 5.37393 19.6692C5.79132 19.6692 6.2348 19.6171 6.65219 19.5127L6.99132 20.7388C7.17393 21.391 7.53914 21.9649 8.00871 22.4344L8.55654 22.9562C8.76523 23.1388 9.0261 23.2431 9.28697 23.2431C9.57393 23.2431 9.8348 23.1388 10.0435 22.9301C10.4348 22.5127 10.4348 21.8605 9.99132 21.4431L9.44349 20.9214C9.2348 20.7127 9.07828 20.4518 9.00001 20.1649L8.66088 18.9388L10.1739 18.4953C14.5044 17.8431 16.4609 17.8953 21.7565 19.4084C21.8609 19.4344 21.9391 19.4605 22.0435 19.4605C22.3044 19.4605 22.5913 19.3562 22.7739 19.1475C23.0348 18.8866 23.1391 18.4953 23.0348 18.1301L21.4957 12.7823C22.1739 12.5214 23.087 12.0518 23.6087 11.191C24 10.5127 24.1044 9.75618 23.8696 8.94749ZM3.80871 17.1649C3.0261 16.7475 2.47828 16.0171 2.21741 15.1823C1.72175 13.4084 2.73915 11.5823 4.46088 11.0605L6.80871 10.3823L7.87828 14.1649L8.60871 16.7736L6.26088 17.4518C5.45219 17.6866 4.56523 17.5823 3.80871 17.1649ZM14.4261 16.0171C13.2522 16.0171 12.0783 16.1214 10.6957 16.304L9.18262 10.9562L8.81741 9.65184C12.1044 8.13879 13.8783 6.96488 16.8 3.91271L20.5044 16.9301C18.0261 16.2779 16.2522 16.0171 14.4261 16.0171ZM21.8348 10.0953C21.6783 10.3823 21.287 10.591 20.9218 10.7475L20.4 8.9214C20.7913 8.86923 21.2348 8.86923 21.5218 9.02575C21.6522 9.10401 21.7826 9.20836 21.887 9.49532C21.9652 9.80836 21.887 9.96488 21.8348 10.0953ZM15.2087 8.37358C15.4957 8.79097 15.4174 9.36488 15 9.65184C14.0348 10.3301 12.9391 10.9301 12.887 10.9562C12.7565 11.0344 12.6 11.0605 12.4696 11.0605C12.1304 11.0605 11.8174 10.8779 11.6609 10.5649C11.4261 10.1214 11.6087 9.57358 12.0522 9.33879C12.0522 9.33879 13.0957 8.79097 13.9304 8.19097C14.3478 7.85184 14.9218 7.95618 15.2087 8.37358Z" fill="white"/>
</svg>
