<svg width="26" height="24" viewBox="0 0 26 24" fill="none" xmlns="http://www.w3.org/2000/svg">
<path fill-rule="evenodd" clip-rule="evenodd" d="M3.25006 1.5C2.35903 1.5 1.62508 2.17749 1.62508 2.99998L1.62291 16.0018C1.62291 16.6693 2.70731 16.6693 2.70731 16.0018L2.7084 2.99998C2.7084 2.71448 2.94077 2.49999 3.25006 2.49999H18.4165C18.7258 2.49999 18.9582 2.71448 18.9582 2.99998V11.9999C18.9474 12.6759 20.0523 12.6759 20.0415 11.9999V2.99998C20.0415 2.17749 19.3076 1.5 18.4165 1.5H3.25006ZM6.50002 5.49995C6.35636 5.49995 6.21859 5.55263 6.11701 5.64639C6.01542 5.74016 5.95836 5.86734 5.95836 5.99994C5.95836 6.13255 6.01542 6.25973 6.11701 6.35349C6.21859 6.44726 6.35636 6.49994 6.50002 6.49994C6.64367 6.49994 6.78145 6.44726 6.88303 6.35349C6.98461 6.25973 7.04168 6.13255 7.04168 5.99994C7.04168 5.86734 6.98461 5.74016 6.88303 5.64639C6.78145 5.55263 6.64367 5.49995 6.50002 5.49995ZM8.61249 5.50095C7.90671 5.54595 7.95708 6.51794 8.66449 6.50094H15.1666C15.8734 6.48694 15.8734 5.51495 15.1666 5.50095H8.66449C8.64717 5.50019 8.62981 5.50019 8.61249 5.50095ZM6.50002 8.49991C6.35636 8.49991 6.21859 8.55259 6.11701 8.64636C6.01542 8.74012 5.95836 8.8673 5.95836 8.99991C5.95836 9.13251 6.01542 9.25969 6.11701 9.35345C6.21859 9.44722 6.35636 9.4999 6.50002 9.4999C6.64367 9.4999 6.78145 9.44722 6.88303 9.35345C6.98461 9.25969 7.04168 9.13251 7.04168 8.99991C7.04168 8.8673 6.98461 8.74012 6.88303 8.64636C6.78145 8.55259 6.64367 8.49991 6.50002 8.49991ZM15.2262 8.49991C15.2061 8.49991 15.1861 8.49991 15.1666 8.50191H8.66449C8.64717 8.50116 8.62981 8.50116 8.61249 8.50191C7.94841 8.57791 7.995 9.4809 8.66449 9.4979H15.1666C15.9103 9.5584 15.9726 8.51441 15.2262 8.49991ZM8.66449 11.4989C7.95762 11.5129 7.95762 12.4849 8.66449 12.4989H15.1666C15.9043 12.5139 15.9043 11.4839 15.1666 11.4989H8.66449ZM6.50002 11.4999C6.35636 11.4999 6.21859 11.5526 6.11701 11.6463C6.01542 11.7401 5.95836 11.8673 5.95836 11.9999C5.95836 12.1325 6.01542 12.2596 6.11701 12.3534C6.21859 12.4472 6.35636 12.4999 6.50002 12.4999C6.64367 12.4999 6.78145 12.4472 6.88303 12.3534C6.98461 12.2596 7.04168 12.1325 7.04168 11.9999C7.04168 11.8673 6.98461 11.7401 6.88303 11.6463C6.78145 11.5526 6.64367 11.4999 6.50002 11.4999ZM6.50002 14.4998C6.35636 14.4998 6.21859 14.5525 6.11701 14.6463C6.01542 14.74 5.95836 14.8672 5.95836 14.9998C5.95836 15.1324 6.01542 15.2596 6.11701 15.3534C6.21859 15.4471 6.35636 15.4998 6.50002 15.4998C6.64367 15.4998 6.78145 15.4471 6.88303 15.3534C6.98461 15.2596 7.04168 15.1324 7.04168 14.9998C7.04168 14.8672 6.98461 14.74 6.88303 14.6463C6.78145 14.5525 6.64367 14.4998 6.50002 14.4998ZM8.66449 14.4998C7.92675 14.4848 7.92675 15.5148 8.66449 15.4998H14.0822C14.8199 15.5148 14.8199 14.4848 14.0822 14.4998H8.66449ZM6.50002 17.4998C6.35636 17.4998 6.21859 17.5525 6.11701 17.6462C6.01542 17.74 5.95836 17.8672 5.95836 17.9998C5.95836 18.1324 6.01542 18.2596 6.11701 18.3533C6.21859 18.4471 6.35636 18.4998 6.50002 18.4998C6.64367 18.4998 6.78145 18.4471 6.88303 18.3533C6.98461 18.2596 7.04168 18.1324 7.04168 17.9998C7.04168 17.8672 6.98461 17.74 6.88303 17.6462C6.78145 17.5525 6.64367 17.4998 6.50002 17.4998ZM8.61249 17.4998C7.88992 17.5318 7.94137 18.5328 8.66449 18.5008H12.9989C13.722 18.5008 13.722 17.4998 12.9989 17.4998H8.66449C8.64717 17.499 8.62981 17.499 8.61249 17.4998ZM2.15915 17.9908C2.08756 17.9914 2.01681 18.0052 1.95101 18.0312C1.8852 18.0573 1.82564 18.0951 1.77578 18.1425C1.72591 18.19 1.68672 18.246 1.66049 18.3075C1.63425 18.369 1.62148 18.4347 1.62291 18.5008L1.62508 20.9998C1.62508 21.8222 2.35903 22.4997 3.25006 22.4997H14.0833C14.8156 22.5097 14.8156 21.4897 14.0833 21.4997H3.25006C2.94077 21.4997 2.7084 21.2852 2.7084 20.9998L2.70731 18.5008C2.70877 18.4338 2.69562 18.3672 2.66864 18.305C2.64167 18.2427 2.60142 18.1862 2.55028 18.1386C2.49914 18.091 2.43817 18.0534 2.37098 18.028C2.30379 18.0026 2.23175 17.99 2.15915 17.9908ZM19.5009 13.4988C16.8148 13.4988 14.6271 15.5193 14.6271 17.9988C14.6271 20.4783 16.8154 22.5017 19.5009 22.5017C22.187 22.5017 24.3748 20.4783 24.3748 17.9988C24.3748 15.5193 22.1865 13.4988 19.5009 13.4988ZM19.5009 14.4998C19.999 14.4988 20.4925 14.5886 20.9529 14.764C21.4133 14.9395 21.8316 15.1972 22.1838 15.5223C22.536 15.8474 22.8152 16.2336 23.0053 16.6586C23.1953 17.0835 23.2926 17.539 23.2915 17.9988C23.2927 18.4587 23.1955 18.9144 23.0055 19.3396C22.8154 19.7647 22.5363 20.1511 22.1842 20.4765C21.832 20.8019 21.4136 21.0598 20.9532 21.2356C20.4927 21.4114 19.9992 21.5015 19.5009 21.5007C19.0027 21.5015 18.5091 21.4114 18.0487 21.2356C17.5882 21.0598 17.1699 20.8019 16.8177 20.4765C16.4655 20.1511 16.1864 19.7647 15.9964 19.3396C15.8064 18.9144 15.7092 18.4587 15.7104 17.9988C15.7093 17.539 15.8065 17.0835 15.9966 16.6586C16.1867 16.2336 16.4659 15.8474 16.8181 15.5223C17.1703 15.1972 17.5886 14.9395 18.049 14.764C18.5094 14.5886 19.0028 14.4988 19.5009 14.4998ZM21.2115 16.4373C21.0712 16.4415 20.9382 16.4958 20.8405 16.5888L18.9252 18.3563L18.1614 17.6483C18.1112 17.6012 18.0514 17.5637 17.9854 17.538C17.9194 17.5123 17.8485 17.4989 17.7769 17.4986C17.7053 17.4983 17.6343 17.5111 17.5681 17.5362C17.5018 17.5614 17.4416 17.5984 17.3909 17.6451C17.3402 17.6918 17.3001 17.7473 17.2728 17.8084C17.2454 17.8695 17.2315 17.935 17.2317 18.0011C17.2319 18.0673 17.2463 18.1327 17.2741 18.1936C17.3018 18.2546 17.3423 18.3099 17.3933 18.3563L18.5417 19.4158C18.592 19.4623 18.6517 19.4991 18.7175 19.5243C18.7832 19.5495 18.8537 19.5624 18.9249 19.5624C18.9961 19.5624 19.0665 19.5495 19.1323 19.5243C19.1981 19.4991 19.2578 19.4623 19.3081 19.4158L21.6085 17.2968C21.6875 17.2265 21.7415 17.1356 21.7633 17.0364C21.7852 16.9371 21.7738 16.834 21.7308 16.7408C21.6877 16.6476 21.615 16.5687 21.5223 16.5145C21.4295 16.4603 21.3212 16.4334 21.2115 16.4373Z" fill="black"/>
</svg>
