<svg width="24" height="24" viewBox="0 0 24 24" fill="none" xmlns="http://www.w3.org/2000/svg">
<g clip-path="url(#clip0_38_219)">
<path d="M20.6432 24H3.35683C2.46654 24 1.61272 23.6463 0.983193 23.0168C0.353665 22.3873 0 21.5335 0 20.6432V3.35683C0 2.46654 0.353665 1.61272 0.983193 0.983193C1.61272 0.353665 2.46654 0 3.35683 0H20.6432C21.5335 0 22.3873 0.353665 23.0168 0.983193C23.6463 1.61272 24 2.46654 24 3.35683V20.6432C24 21.5335 23.6463 22.3873 23.0168 23.0168C22.3873 23.6463 21.5335 24 20.6432 24ZM3.35683 1.34273C2.82266 1.34273 2.31037 1.55493 1.93265 1.93265C1.55493 2.31037 1.34273 2.82266 1.34273 3.35683V20.6432C1.34273 21.1773 1.55493 21.6896 1.93265 22.0674C2.31037 22.4451 2.82266 22.6573 3.35683 22.6573H20.6432C21.1773 22.6573 21.6896 22.4451 22.0674 22.0674C22.4451 21.6896 22.6573 21.1773 22.6573 20.6432V3.35683C22.6573 2.82266 22.4451 2.31037 22.0674 1.93265C21.6896 1.55493 21.1773 1.34273 20.6432 1.34273H3.35683Z" fill="black"/>
<path d="M6.54408 8.28325C6.412 8.28096 6.28575 8.22839 6.19108 8.13625C6.09735 8.04249 6.04469 7.91533 6.04469 7.78275C6.04469 7.65017 6.09735 7.52301 6.19108 7.42925C6.28551 7.33687 6.41199 7.28456 6.54408 7.28325H7.55008C7.6821 7.28497 7.80843 7.33722 7.90308 7.42925C7.94967 7.47569 7.98663 7.53086 8.01185 7.5916C8.03708 7.65235 8.05007 7.71748 8.05008 7.78325C8.05008 7.91586 7.99741 8.04304 7.90364 8.1368C7.80987 8.23057 7.68269 8.28325 7.55008 8.28325H6.54408ZM6.54408 12.5002C6.41222 12.4978 6.28613 12.4457 6.19108 12.3542C6.14452 12.3078 6.10758 12.2526 6.08237 12.1919C6.05716 12.1311 6.04419 12.066 6.04419 12.0002C6.04419 11.9345 6.05716 11.8694 6.08237 11.8086C6.10758 11.7479 6.14452 11.6927 6.19108 11.6462C6.28574 11.5542 6.41207 11.502 6.54408 11.5002H7.55008C7.68199 11.5025 7.80815 11.5546 7.90308 11.6462C7.94965 11.6927 7.98659 11.7479 8.0118 11.8086C8.037 11.8694 8.04998 11.9345 8.04998 12.0002C8.04998 12.066 8.037 12.1311 8.0118 12.1919C7.98659 12.2526 7.94965 12.3078 7.90308 12.3542C7.80843 12.4463 7.6821 12.4985 7.55008 12.5002H6.54408ZM6.54408 16.7202C6.412 16.718 6.28575 16.6654 6.19108 16.5732C6.09735 16.4795 6.04469 16.3523 6.04469 16.2197C6.04469 16.0872 6.09735 15.96 6.19108 15.8663C6.28574 15.7742 6.41207 15.722 6.54408 15.7203H7.55008C7.6821 15.722 7.80843 15.7742 7.90308 15.8663C7.94967 15.9127 7.98663 15.9679 8.01185 16.0286C8.03708 16.0893 8.05007 16.1545 8.05008 16.2202C8.05008 16.3529 7.99741 16.48 7.90364 16.5738C7.80987 16.6676 7.68269 16.7202 7.55008 16.7202H6.54408ZM10.5541 8.28125C10.4215 8.28125 10.2943 8.22857 10.2005 8.1348C10.1068 8.04103 10.0541 7.91386 10.0541 7.78125C10.0541 7.64864 10.1068 7.52146 10.2005 7.4277C10.2943 7.33393 10.4215 7.28125 10.5541 7.28125H17.4541C17.5867 7.28125 17.7139 7.33393 17.8076 7.4277C17.9014 7.52146 17.9541 7.64864 17.9541 7.78125C17.9541 7.91386 17.9014 8.04103 17.8076 8.1348C17.7139 8.22857 17.5867 8.28125 17.4541 8.28125H10.5541ZM10.5541 12.5002C10.4215 12.5002 10.2943 12.4476 10.2005 12.3538C10.1068 12.26 10.0541 12.1329 10.0541 12.0002C10.0541 11.8676 10.1068 11.7405 10.2005 11.6467C10.2943 11.5529 10.4215 11.5002 10.5541 11.5002H17.4541C17.5867 11.5002 17.7139 11.5529 17.8076 11.6467C17.9014 11.7405 17.9541 11.8676 17.9541 12.0002C17.9541 12.1329 17.9014 12.26 17.8076 12.3538C17.7139 12.4476 17.5867 12.5002 17.4541 12.5002H10.5541ZM10.5541 16.7183C10.4215 16.7183 10.2943 16.6656 10.2005 16.5718C10.1068 16.478 10.0541 16.3509 10.0541 16.2183C10.0541 16.0856 10.1068 15.9585 10.2005 15.8647C10.2943 15.7709 10.4215 15.7183 10.5541 15.7183H17.4541C17.5867 15.7183 17.7139 15.7709 17.8076 15.8647C17.9014 15.9585 17.9541 16.0856 17.9541 16.2183C17.9541 16.3509 17.9014 16.478 17.8076 16.5718C17.7139 16.6656 17.5867 16.7183 17.4541 16.7183H10.5541Z" fill="black"/>
</g>
<defs>
<clipPath id="clip0_38_219">
<rect width="24" height="24" fill="white"/>
</clipPath>
</defs>
</svg>
