<svg xmlns="http://www.w3.org/2000/svg" viewBox="0 0 44.42 56.13"><defs><style>.cls-1{stroke:#000;stroke-miterlimit:10;stroke-width:0.25px;}</style></defs><g id="Layer_2" data-name="Layer 2"><g id="Layer_1-2" data-name="Layer 1"><path class="cls-1" d="M37.94,56H6.47A6.23,6.23,0,0,1,2,54.13a6.63,6.63,0,0,1-.78-.93A6.33,6.33,0,0,1,.12,49.64V6.47A6.36,6.36,0,0,1,6.47.12H37.94a6.36,6.36,0,0,1,6.35,6.35V49.64A6.36,6.36,0,0,1,37.94,56ZM6.47,1.12A5.36,5.36,0,0,0,1.12,6.47V49.64a5.33,5.33,0,0,0,.92,3,5.76,5.76,0,0,0,.66.79A5.29,5.29,0,0,0,6.47,55H37.94a5.36,5.36,0,0,0,5.35-5.36V6.47a5.36,5.36,0,0,0-5.35-5.35Z"/><path class="cls-1" d="M31.38,5.66H13a2.92,2.92,0,0,1-2.92-2.91V.12H34.29V2.75A2.92,2.92,0,0,1,31.38,5.66ZM11.12,1.12V2.75A1.92,1.92,0,0,0,13,4.66H31.38a1.92,1.92,0,0,0,1.91-1.91V1.12Z"/><path d="M15.73,20.72l-5.42,5.39a.82.82,0,0,1-.53.22.75.75,0,0,1-.53-.22L7.47,24.32a.74.74,0,0,1,0-1.06.75.75,0,0,1,1.06,0l1.26,1.26L12,22.35,13,21.29l1.64-1.63a.75.75,0,0,1,1.06,0A.75.75,0,0,1,15.73,20.72Z"/><path d="M9.78,26.46a.87.87,0,0,1-.62-.26L7.38,24.41a.87.87,0,0,1-.26-.62.88.88,0,0,1,1.5-.61l1.17,1.17,4.8-4.78a.87.87,0,1,1,1.23,1.23h0l-5.43,5.4a.77.77,0,0,1-.28.19A.88.88,0,0,1,9.78,26.46ZM8,23.17a.62.62,0,0,0-.44.18.61.61,0,0,0-.19.44.63.63,0,0,0,.19.44L9.34,26a.62.62,0,0,0,.67.14.6.6,0,0,0,.21-.14l5.42-5.39a.62.62,0,0,0,0-.88.63.63,0,0,0-.88,0l-5,5L8.44,23.36A.59.59,0,0,0,8,23.17Z"/><path d="M15.73,30.57,10.31,36a.82.82,0,0,1-.53.22A.75.75,0,0,1,9.25,36L7.47,34.18a.74.74,0,0,1,0-1.06.75.75,0,0,1,1.06,0l1.26,1.26L12,32.21,13,31.15l1.64-1.63a.75.75,0,0,1,1.06,0A.73.73,0,0,1,15.73,30.57Z"/><path d="M9.78,36.32a.91.91,0,0,1-.62-.26l-1.78-1.8a.83.83,0,0,1-.26-.61A.86.86,0,0,1,7.39,33a.88.88,0,0,1,1.23,0l1.17,1.17,4.8-4.78a.9.9,0,0,1,1.24,0,.88.88,0,0,1,0,1.23h0l-5.43,5.4a.88.88,0,0,1-.61.26ZM8,33a.62.62,0,0,0-.44.18.61.61,0,0,0-.19.44.63.63,0,0,0,.19.44l1.78,1.79A.63.63,0,0,0,10,36a.66.66,0,0,0,.2-.14l5.42-5.39a.62.62,0,0,0,0-.88.63.63,0,0,0-.88,0l-5,5L8.44,33.21A.62.62,0,0,0,8,33Z"/><path d="M15.73,10.82l-5.42,5.4a.82.82,0,0,1-.25.16.67.67,0,0,1-.28.06.75.75,0,0,1-.53-.22l-1.78-1.8a.73.73,0,0,1,0-1.05.75.75,0,0,1,1.06,0l1.26,1.27L12,12.46,13,11.39l1.64-1.63a.75.75,0,0,1,1.06,0A.75.75,0,0,1,15.73,10.82Z"/><path d="M9.78,16.56a.9.9,0,0,1-.62-.25l-1.78-1.8a.85.85,0,0,1-.26-.62.84.84,0,0,1,.27-.61.88.88,0,0,1,1.23,0l1.17,1.18,4.8-4.78a.87.87,0,1,1,1.23,1.23h0l-5.43,5.4a.93.93,0,0,1-.61.25ZM8,13.28a.62.62,0,0,0-.44.18.59.59,0,0,0,0,.87l1.78,1.8a.64.64,0,0,0,.88,0l5.42-5.4a.62.62,0,0,0,0-.88.63.63,0,0,0-.88,0l-5,5L8.44,13.46A.62.62,0,0,0,8,13.28Z"/><path d="M15.73,40.39l-5.42,5.4a.82.82,0,0,1-.53.22.75.75,0,0,1-.53-.22L7.47,44a.74.74,0,0,1,0-1.06.75.75,0,0,1,1.06,0l1.26,1.26L12,42,13,41l1.64-1.63a.75.75,0,0,1,1.06,0A.73.73,0,0,1,15.73,40.39Z"/><path d="M9.78,46.14a.87.87,0,0,1-.62-.26l-1.78-1.8a.83.83,0,0,1-.26-.61.86.86,0,0,1,.27-.62.88.88,0,0,1,1.23,0L9.79,44l4.8-4.78a.87.87,0,1,1,1.23,1.23h0l-5.43,5.4a.88.88,0,0,1-.61.26ZM8,42.85a.62.62,0,0,0-.44.18.61.61,0,0,0-.19.44.63.63,0,0,0,.19.44L9.34,45.7a.61.61,0,0,0,.68.14.66.66,0,0,0,.2-.14l5.42-5.39a.62.62,0,0,0,0-.88.61.61,0,0,0-.88,0l-5,5L8.44,43A.62.62,0,0,0,8,42.85Z"/><path d="M19.83,12.13H36.46a.88.88,0,0,1,0,1.72H19.83a.88.88,0,0,1,0-1.72Z"/><path d="M36.46,14H19.83A.92.92,0,0,1,19,13a.92.92,0,0,1,.83-1H36.46a.92.92,0,0,1,.83,1A.92.92,0,0,1,36.46,14ZM19.83,12.25a.67.67,0,0,0-.58.74.67.67,0,0,0,.58.74H36.46A.67.67,0,0,0,37,13a.67.67,0,0,0-.58-.74Z"/><path d="M19.83,22H36.46a.88.88,0,0,1,0,1.73H19.83a.88.88,0,0,1,0-1.73Z"/><path d="M36.46,23.87H19.83a1,1,0,0,1,0-2H36.46a1,1,0,0,1,0,2ZM19.83,22.15a.76.76,0,0,0,0,1.47H36.46a.76.76,0,0,0,0-1.47Z"/><path d="M19.83,31.88H36.46a.88.88,0,0,1,0,1.73H19.83a.88.88,0,0,1,0-1.73Z"/><path d="M36.46,33.73H19.83a1,1,0,0,1,0-2H36.46a1,1,0,0,1,0,2ZM19.83,32a.76.76,0,0,0,0,1.47H36.46a.76.76,0,0,0,0-1.47Z"/><path d="M19.83,41.7H36.46a.88.88,0,0,1,0,1.73H19.83a.88.88,0,0,1,0-1.73Z"/><path d="M36.46,43.55H19.83a1,1,0,0,1,0-2H36.46a1,1,0,0,1,0,2ZM19.83,41.83a.76.76,0,0,0,0,1.47H36.46a.76.76,0,0,0,0-1.47Z"/></g></g></svg>