<svg xmlns="http://www.w3.org/2000/svg" viewBox="0 0 45.79 40.78"><defs><style>.cls-1{fill:#fffdfd;}</style></defs><g id="Layer_2" data-name="Layer 2"><g id="Layer_1-2" data-name="Layer 1"><path class="cls-1" d="M6,1.08H24.16a2.35,2.35,0,0,1,2.35,2.35V39.7a0,0,0,0,1,0,0H3.64a0,0,0,0,1,0,0V3.43A2.35,2.35,0,0,1,6,1.08Z"/><path d="M27.6,40.78h-25V3.62A3.63,3.63,0,0,1,6.18,0H24A3.63,3.63,0,0,1,27.6,3.62ZM4.72,38.62H25.44v-35A1.46,1.46,0,0,0,24,2.16H6.18A1.46,1.46,0,0,0,4.72,3.62Z"/><path class="cls-1" d="M27.74,14.34H39.62A2.35,2.35,0,0,1,42,16.7v23a0,0,0,0,1,0,0H25.38a0,0,0,0,1,0,0v-23A2.35,2.35,0,0,1,27.74,14.34Z"/><path d="M43.06,40.78H24.3V16.88a3.63,3.63,0,0,1,3.62-3.62H39.44a3.63,3.63,0,0,1,3.62,3.62Zm-16.6-2.16H40.9V16.88a1.47,1.47,0,0,0-1.46-1.46H27.92a1.46,1.46,0,0,0-1.46,1.46Z"/><path d="M44.71,40.78H1.08a1.08,1.08,0,0,1,0-2.16H44.71a1.08,1.08,0,0,1,0,2.16Z"/><path d="M16.45,10.76h-6a1.08,1.08,0,1,1,0-2.16h6a1.08,1.08,0,1,1,0,2.16Z"/><path d="M19.15,23.84h-6a1.08,1.08,0,0,1,0-2.15h6a1.08,1.08,0,0,1,0,2.15Z"/><path d="M16.14,32.25h-6a1.08,1.08,0,1,1,0-2.16h6a1.08,1.08,0,0,1,0,2.16Z"/><path d="M36.1,23.84h-6a1.08,1.08,0,1,1,0-2.15h6a1.08,1.08,0,1,1,0,2.15Z"/><path d="M36.1,32.25h-6a1.08,1.08,0,0,1,0-2.16h6a1.08,1.08,0,0,1,0,2.16Z"/></g></g></svg>