<svg xmlns="http://www.w3.org/2000/svg" viewBox="0 0 70.27 74.81"><defs><style>.cls-1{fill:none;stroke:#000;stroke-linecap:round;stroke-miterlimit:10;stroke-width:2px;}</style></defs><g id="Layer_2" data-name="Layer 2"><g id="Layer_1-2" data-name="Layer 1"><circle class="cls-1" cx="35.16" cy="14.72" r="13.72"/><path d="M61.6,48.41V72c0,2.14-.72,2.86-2.83,2.86H11.6c-2.08,0-2.8-.74-2.8-2.87q0-11.11,0-22.21V48.41c-2.28,0-4.46,0-6.65,0-.74,0-1.61.26-2-.66s.32-1.35.77-1.9c2.57-3.24,5.18-6.46,7.73-9.71a2.25,2.25,0,0,1,2-.94H59.83a2.26,2.26,0,0,1,2,.95c2.68,3.39,5.41,6.74,8.07,10.14a1.73,1.73,0,0,1,.35,1.44,1.7,1.7,0,0,1-1.33.65C66.51,48.45,64.13,48.41,61.6,48.41Zm-2.26,0H58.07c-5.46,0-10.92-.16-16.37.07-2.75.12-4.6-.6-6.1-2.95a73.46,73.46,0,0,0-4.72-6v33H59.34ZM28.53,72.56V39.62c-.28.31-.44.48-.59.67-2,2.43-3.87,4.88-5.88,7.26a2.65,2.65,0,0,1-1.73.83c-2.75.08-5.5,0-8.24,0h-1V72.56ZM67,46.21c-2.28-2.84-4.39-5.46-6.47-8.11a1.64,1.64,0,0,0-1.47-.7c-8.68,0-17.37,0-26.05,0-.27,0-.53,0-.94.09,2.18,2.72,4.28,5.3,6.31,7.93a1.86,1.86,0,0,0,1.66.78q12.85,0,25.72,0Zm-63.59,0c5.66,0,11,0,16.42,0a1.63,1.63,0,0,0,1-.63c2-2.4,3.91-4.84,5.85-7.27.18-.24.33-.51.56-.87-5.19,0-10.2,0-15.22,0A2.91,2.91,0,0,0,9.4,38.63C7.53,41.15,5.52,43.56,3.41,46.21Z"/><path d="M45.16,57.21h6c1.29,0,1.6.33,1.61,1.64v3.62a1.19,1.19,0,0,1-1.35,1.34H38.72a1.18,1.18,0,0,1-1.33-1.36q0-1.92,0-3.84a1.21,1.21,0,0,1,1.4-1.4Zm-5.48,2.25v2.06H50.53V59.46Z"/><path d="M35.8,7.21c.34,0,.69.09,1,.15a4,4,0,0,1,2.45,1.49,3.73,3.73,0,0,1,.82,1.83,1.33,1.33,0,0,1-.61,1.42,1.26,1.26,0,0,1-1.87-.7c-.12-.33-.23-.67-.37-1a2.11,2.11,0,0,0-.66-.85,2,2,0,0,0-3.13,1.31,3.92,3.92,0,0,0,.12,1.7c.11.37.22.74.32,1.11,0,.13.09.15.21.15.54,0,1.09,0,1.63,0a5.63,5.63,0,0,1,.81.11.7.7,0,0,1,.56.84.89.89,0,0,1-.88.87c-.51,0-1,0-1.54,0h-.37c0,.18,0,.35,0,.53a3.38,3.38,0,0,1-.47,1.54,11.72,11.72,0,0,1-1.37,1.84l-.13.16.18,0a7.64,7.64,0,0,1,2.38-.27c.63,0,1.26.12,1.9.18.41,0,.82.09,1.24.1a5,5,0,0,0,1.61-.33A1.11,1.11,0,0,1,41,20a1.22,1.22,0,0,1-.42,1.62,4.07,4.07,0,0,1-1.61.59,4.66,4.66,0,0,1-1.86-.1l-2.9-.65a3.2,3.2,0,0,0-2,.12c-.52.22-1.05.42-1.59.59a1.09,1.09,0,0,1-1.3-.73,1.06,1.06,0,0,1,.27-1.17c.31-.33.63-.64,1-.94a3.71,3.71,0,0,0,1.23-2.67c0-.3-.05-.61-.07-.93h-.19l-1.26,0a1,1,0,0,1-.24,0,.72.72,0,0,1-.63-.77.84.84,0,0,1,.54-.88,5.32,5.32,0,0,1,.8-.12h.49c-.1-.35-.19-.68-.27-1a5.26,5.26,0,0,1-.14-2.2,3.79,3.79,0,0,1,1.93-2.74,4.88,4.88,0,0,1,2.1-.63.45.45,0,0,0,.11,0Z"/></g></g></svg>