<svg width="24" height="23" viewBox="0 0 24 23" fill="none" xmlns="http://www.w3.org/2000/svg">
<path d="M20.578 10.9035L4.74365 2.57126C4.61028 2.50203 4.45762 2.47262 4.306 2.48693C4.15439 2.50124 4.01101 2.5586 3.89495 2.65138C3.7789 2.74415 3.69568 2.86793 3.65637 3.00625C3.61706 3.14456 3.62352 3.29084 3.6749 3.42562L6.65615 11.2822C6.72183 11.4347 6.72183 11.6053 6.65615 11.7578L3.6749 19.6144C3.62352 19.7492 3.61706 19.8955 3.65637 20.0338C3.69568 20.1721 3.7789 20.2959 3.89495 20.3887C4.01101 20.4814 4.15439 20.5388 4.306 20.5531C4.45762 20.5674 4.61028 20.538 4.74365 20.4688L20.578 12.1366C20.6953 12.0756 20.793 11.9863 20.861 11.8779C20.9291 11.7695 20.9649 11.6459 20.9649 11.52C20.9649 11.3941 20.9291 11.2706 20.861 11.1622C20.793 11.0537 20.6953 10.9644 20.578 10.9035V10.9035Z" stroke="#111111" stroke-width="1.5" stroke-linecap="round" stroke-linejoin="round"/>
<path d="M6.75 11.5195H12.75" stroke="#111111" stroke-width="1.5" stroke-linecap="round" stroke-linejoin="round"/>
</svg>
