<svg width="48" height="48" viewBox="0 0 48 48" fill="none" xmlns="http://www.w3.org/2000/svg">
<path d="M24 4.5C20.1433 4.5 16.3731 5.64366 13.1664 7.78634C9.95963 9.92903 7.46027 12.9745 5.98436 16.5377C4.50845 20.1008 4.12228 24.0216 4.8747 27.8043C5.62711 31.5869 7.4843 35.0615 10.2114 37.7886C12.9385 40.5157 16.4131 42.3729 20.1957 43.1253C23.9784 43.8777 27.8992 43.4916 31.4623 42.0156C35.0255 40.5397 38.071 38.0404 40.2137 34.8336C42.3564 31.6269 43.5 27.8567 43.5 24C43.4901 18.8313 41.4325 13.8772 37.7776 10.2224C34.1228 6.56755 29.1687 4.50991 24 4.5Z" fill="white"/>
<path d="M24 4.5C20.1433 4.5 16.3731 5.64366 13.1664 7.78634C9.95963 9.92903 7.46027 12.9745 5.98436 16.5377C4.50845 20.1008 4.12228 24.0216 4.8747 27.8043C5.62711 31.5869 7.4843 35.0615 10.2114 37.7886C12.9386 40.5157 16.4131 42.3729 20.1957 43.1253C23.9784 43.8777 27.8992 43.4916 31.4623 42.0156C35.0255 40.5397 38.071 38.0404 40.2137 34.8336C42.3564 31.6269 43.5 27.8567 43.5 24C43.4901 18.8313 41.4325 13.8772 37.7776 10.2224C34.1228 6.56755 29.1687 4.50991 24 4.5ZM31.5 25.5H25.5V31.5C25.5 31.8978 25.342 32.2794 25.0607 32.5607C24.7794 32.842 24.3978 33 24 33C23.6022 33 23.2207 32.842 22.9393 32.5607C22.658 32.2794 22.5 31.8978 22.5 31.5V25.5H16.5C16.1022 25.5 15.7207 25.342 15.4393 25.0607C15.158 24.7794 15 24.3978 15 24C15 23.6022 15.158 23.2206 15.4393 22.9393C15.7207 22.658 16.1022 22.5 16.5 22.5H22.5V16.5C22.5 16.1022 22.658 15.7206 22.9393 15.4393C23.2207 15.158 23.6022 15 24 15C24.3978 15 24.7794 15.158 25.0607 15.4393C25.342 15.7206 25.5 16.1022 25.5 16.5V22.5H31.5C31.8978 22.5 32.2794 22.658 32.5607 22.9393C32.842 23.2206 33 23.6022 33 24C33 24.3978 32.842 24.7794 32.5607 25.0607C32.2794 25.342 31.8978 25.5 31.5 25.5Z" fill="#0078FF"/>
</svg>
