<svg width="40" height="40" viewBox="0 0 40 40" fill="none" xmlns="http://www.w3.org/2000/svg">
<path d="M0.953125 0V38.2597H8.64378V30.8049H15.647V38.2597H22.7576V0H0.953125ZM11.0068 27.0775H3.83175V22.0061H11.0068V27.0775ZM11.0068 20.7337H3.83175V15.6623H11.0068V20.7337ZM11.0068 14.39H3.83175V9.30061H11.0068V14.39ZM11.0068 8.04619H3.83175V2.97476H11.0068V8.04619ZM19.879 27.0775H12.7039V22.0061H19.879V27.0775ZM19.879 20.7337H12.7039V15.6623H19.879V20.7337ZM19.879 14.39H12.7039V9.30061H19.879V14.39ZM19.879 8.04619H12.7039V2.97476H19.879V8.04619Z" fill="#0078FF"/>
<path d="M39.8364 38.1898H38.5905V12.528H26.1737V38.1898H24.9062V11.4707H39.8364V38.1898Z" fill="#0078FF"/>
<path d="M31.8687 14.5547H27.6367V18.0312H31.8687V14.5547Z" fill="#0078FF"/>
<path d="M37.1265 14.5547H32.8945V18.0312H37.1265V14.5547Z" fill="#0078FF"/>
<path d="M31.8687 18.5801H27.6367V22.0566H31.8687V18.5801Z" fill="#0078FF"/>
<path d="M37.1265 18.5801H32.8945V22.0566H37.1265V18.5801Z" fill="#0078FF"/>
<path d="M31.8687 22.6152H27.6367V26.0918H31.8687V22.6152Z" fill="#0078FF"/>
<path d="M37.1265 22.6152H32.8945V26.0918H37.1265V22.6152Z" fill="#0078FF"/>
<path d="M31.8687 26.6523H27.6367V30.1289H31.8687V26.6523Z" fill="#0078FF"/>
<path d="M37.1265 26.6523H32.8945V30.1289H37.1265V26.6523Z" fill="#0078FF"/>
<path d="M34.6773 32.4688H30.3164V38.024H34.6773V32.4688Z" fill="#0078FF"/>
<path d="M40.1817 39.3555H0.804688V39.7318H40.1817V39.3555Z" fill="#0078FF"/>
<path d="M40.5 39.0859H0.5V39.9999H40.5V39.0859Z" fill="#0078FF"/>
</svg>
