<svg width="20" height="20" viewBox="0 0 20 20" fill="none" xmlns="http://www.w3.org/2000/svg">
<g clip-path="url(#clip0_8_5258)">
<path d="M19.8204 10.445L17.9454 12.32C17.8259 12.4355 17.6663 12.5 17.5001 12.5C17.3339 12.5 17.1742 12.4355 17.0548 12.32L15.1798 10.445C15.0801 10.3235 15.0292 10.1694 15.0369 10.0125C15.0446 9.85555 15.1104 9.70711 15.2215 9.59603C15.3326 9.48495 15.481 9.41915 15.6379 9.41145C15.7948 9.40374 15.949 9.45467 16.0704 9.55434L16.8751 10.3668V9.99965C16.8738 8.51636 16.3928 7.07327 15.5039 5.88583C14.615 4.69838 13.3659 3.83025 11.9431 3.41105C10.5203 2.99185 9.00002 3.04406 7.6093 3.55988C6.21859 4.07569 5.03199 5.02746 4.22666 6.27309C4.18163 6.34195 4.12344 6.40125 4.05544 6.44757C3.98743 6.49389 3.91095 6.52633 3.83038 6.54303C3.74981 6.55972 3.66674 6.56034 3.58593 6.54486C3.50512 6.52937 3.42816 6.49808 3.35947 6.45277C3.29024 6.4091 3.23039 6.35209 3.1834 6.28506C3.13641 6.21803 3.10323 6.14232 3.08578 6.06235C3.06833 5.98237 3.06697 5.89972 3.08176 5.81921C3.09656 5.7387 3.12723 5.66194 3.17197 5.5934C4.12295 4.11886 5.52571 2.99178 7.17047 2.38072C8.81523 1.76966 10.6136 1.70745 12.2967 2.20339C13.9797 2.69934 15.457 3.72679 16.5076 5.1321C17.5582 6.5374 18.1257 8.24504 18.1251 9.99965V10.3668L18.9298 9.55434C19.0512 9.45467 19.2054 9.40374 19.3623 9.41145C19.5192 9.41915 19.6676 9.48495 19.7787 9.59603C19.8898 9.70711 19.9556 9.85555 19.9633 10.0125C19.971 10.1694 19.9201 10.3235 19.8204 10.445ZM16.8282 14.4059C15.8772 15.8804 14.4745 17.0075 12.8297 17.6186C11.185 18.2296 9.38658 18.2919 7.70353 17.7959C6.02047 17.3 4.54319 16.2725 3.49259 14.8672C2.44199 13.4619 1.87454 11.7543 1.8751 9.99965V9.63246L1.07041 10.445C0.951914 10.5623 0.791878 10.6282 0.625098 10.6282C0.458318 10.6282 0.298281 10.5623 0.179785 10.445C0.0624218 10.3265 -0.00341797 10.1664 -0.00341797 9.99965C-0.00341797 9.83287 0.0624218 9.67283 0.179785 9.55434L2.05479 7.67934C2.17328 7.56197 2.33332 7.49613 2.5001 7.49613C2.66688 7.49613 2.82691 7.56197 2.94541 7.67934L4.82041 9.55434C4.93777 9.67283 5.00361 9.83287 5.00361 9.99965C5.00361 10.1664 4.93777 10.3265 4.82041 10.445C4.70095 10.5605 4.54127 10.625 4.3751 10.625C4.20892 10.625 4.04925 10.5605 3.92979 10.445L3.1251 9.63246V9.99965C3.1228 11.682 3.74023 13.3062 4.85947 14.5621C5.55634 13.5515 6.53807 12.771 7.67979 12.32C7.06743 11.8377 6.62059 11.1765 6.4014 10.4285C6.18222 9.68044 6.20158 8.88269 6.45681 8.14617C6.71203 7.40965 7.19042 6.77097 7.82546 6.31894C8.4605 5.86691 9.22061 5.62401 10.0001 5.62401C10.7796 5.62401 11.5397 5.86691 12.1747 6.31894C12.8098 6.77097 13.2882 7.40965 13.5434 8.14617C13.7986 8.88269 13.818 9.68044 13.5988 10.4285C13.3796 11.1765 12.9328 11.8377 12.3204 12.32C13.4627 12.774 14.4443 13.5571 15.1407 14.57C15.3732 14.3055 15.5848 14.0234 15.7735 13.7262C15.8186 13.6573 15.8768 13.5981 15.9448 13.5517C16.0128 13.5054 16.0892 13.473 16.1698 13.4563C16.2504 13.4396 16.3335 13.439 16.4143 13.4544C16.4951 13.4699 16.572 13.5012 16.6407 13.5465C16.71 13.5902 16.7698 13.6472 16.8168 13.7142C16.8638 13.7813 16.897 13.857 16.9144 13.937C16.9319 14.0169 16.9332 14.0996 16.9184 14.1801C16.9036 14.2606 16.873 14.3374 16.8282 14.4059ZM10.0001 11.8746C10.4946 11.8746 10.9779 11.728 11.389 11.4533C11.8001 11.1786 12.1206 10.7882 12.3098 10.3314C12.499 9.87454 12.5485 9.37188 12.4521 8.88692C12.3556 8.40197 12.1175 7.95651 11.7679 7.60688C11.4182 7.25725 10.9728 7.01915 10.4878 6.92269C10.0029 6.82622 9.50021 6.87573 9.04339 7.06495C8.58657 7.25417 8.19613 7.5746 7.92142 7.98572C7.64672 8.39685 7.5001 8.8802 7.5001 9.37465C7.50216 10.0371 7.76621 10.6717 8.23461 11.1401C8.703 11.6085 9.33769 11.8726 10.0001 11.8746ZM10.0001 16.8747C11.5269 16.8767 13.011 16.371 14.2188 15.4371C13.7676 14.7286 13.1451 14.1452 12.4088 13.7407C11.6725 13.3363 10.8462 13.1238 10.0061 13.1231C9.16609 13.1223 8.33938 13.3332 7.60235 13.7362C6.86532 14.1393 6.24173 14.7216 5.78916 15.4293C6.99191 16.368 8.4744 16.8769 10.0001 16.8747Z" fill="#FFC025"/>
</g>
<defs>
<clipPath id="clip0_8_5258">
<rect width="20" height="20" fill="white"/>
</clipPath>
</defs>
</svg>
