<svg width="23" height="24" viewBox="0 0 23 24" fill="none" xmlns="http://www.w3.org/2000/svg">
<path d="M18.8961 5.25H3.68359" stroke="#FF5252" stroke-width="1.5" stroke-linecap="round" stroke-linejoin="round"/>
<path d="M9.21875 9.75V15.75" stroke="#FF5252" stroke-width="1.5" stroke-linecap="round" stroke-linejoin="round"/>
<path d="M13.3711 9.75V15.75" stroke="#FF5252" stroke-width="1.5" stroke-linecap="round" stroke-linejoin="round"/>
<path d="M17.5169 5.25V19.5C17.5169 19.6989 17.4441 19.8897 17.3144 20.0303C17.1847 20.171 17.0088 20.25 16.8254 20.25H5.76179C5.5784 20.25 5.40252 20.171 5.27284 20.0303C5.14316 19.8897 5.07031 19.6989 5.07031 19.5V5.25" stroke="#FF5252" stroke-width="1.5" stroke-linecap="round" stroke-linejoin="round"/>
<path d="M14.7429 5.25V3.75C14.7429 3.35218 14.5972 2.97064 14.3378 2.68934C14.0785 2.40804 13.7267 2.25 13.3599 2.25H9.21108C8.8443 2.25 8.49254 2.40804 8.23318 2.68934C7.97383 2.97064 7.82812 3.35218 7.82812 3.75V5.25" stroke="#FF5252" stroke-width="1.5" stroke-linecap="round" stroke-linejoin="round"/>
</svg>
