<svg width="23" height="24" viewBox="0 0 23 24" fill="none" xmlns="http://www.w3.org/2000/svg">
<path d="M18.67 5.25H3.45752" stroke="#FF5252" stroke-width="1.5" stroke-linecap="round" stroke-linejoin="round"/>
<path d="M8.98999 9.75V15.75" stroke="#FF5252" stroke-width="1.5" stroke-linecap="round" stroke-linejoin="round"/>
<path d="M13.1431 9.75V15.75" stroke="#FF5252" stroke-width="1.5" stroke-linecap="round" stroke-linejoin="round"/>
<path d="M17.2886 5.25V19.5C17.2886 19.6989 17.2158 19.8897 17.0861 20.0303C16.9564 20.171 16.7806 20.25 16.5972 20.25H5.53352C5.35013 20.25 5.17425 20.171 5.04457 20.0303C4.91489 19.8897 4.84204 19.6989 4.84204 19.5V5.25" stroke="#FF5252" stroke-width="1.5" stroke-linecap="round" stroke-linejoin="round"/>
<path d="M14.5154 5.25V3.75C14.5154 3.35218 14.3697 2.97064 14.1103 2.68934C13.851 2.40804 13.4992 2.25 13.1324 2.25H8.98354C8.61676 2.25 8.265 2.40804 8.00564 2.68934C7.74629 2.97064 7.60059 3.35218 7.60059 3.75V5.25" stroke="#FF5252" stroke-width="1.5" stroke-linecap="round" stroke-linejoin="round"/>
</svg>
