<svg width="41" height="40" viewBox="0 0 41 40" fill="none" xmlns="http://www.w3.org/2000/svg">
<path d="M14.808 33.1974C14.9878 33.5129 15.1954 33.6457 15.5274 33.6457C16.4819 33.6125 17.4503 33.6125 18.4048 33.6457C18.7784 33.6623 18.9167 33.5129 19.0135 33.1144C20.4523 27.3863 21.9049 21.6416 23.3574 15.9135C23.4681 15.4818 23.4128 15.3158 23.0393 15.1996C21.1993 14.6018 19.3732 13.9543 17.5333 13.34C17.2428 13.2404 17.0906 13.0744 17.0353 12.7257C16.9938 12.3936 16.8831 12.0616 16.7724 11.6299C16.5926 11.9453 16.4819 12.1446 16.3712 12.3272C16.1637 12.6427 15.8732 12.7755 15.555 12.6759C13.4661 11.9785 11.391 11.2646 9.30205 10.5341C8.81786 10.368 8.65185 9.93635 8.79019 9.37184C8.90086 8.89034 9.06687 8.42545 9.13604 7.94396C9.27438 7.01418 9.71707 6.36665 10.3396 5.81875C10.7546 5.45348 11.142 5.0716 11.5708 4.72294C14.0886 2.66414 16.8693 1.4521 19.9266 1.00382C21.6974 0.754768 23.4543 0.771372 25.1974 1.12004C25.7922 1.23626 26.4009 1.36909 27.0096 1.48531C27.0926 1.13664 27.1618 0.821181 27.2586 0.522323C27.397 0.107243 27.7843 -0.0919957 28.1302 0.04083C28.476 0.173656 28.6697 0.60534 28.5729 1.02042C28.5037 1.33588 28.4207 1.63474 28.3377 1.98341C28.5175 2.04982 28.6697 2.11623 28.8081 2.18264C34.0927 4.5237 37.8832 8.6413 39.986 14.8177C40.5117 16.3784 40.7607 17.8893 40.1105 19.4666C40.0551 19.5994 40.0413 19.7654 39.9998 19.9149C39.8199 20.6122 39.4603 20.8281 38.8654 20.6288C36.9701 19.9813 35.061 19.3338 33.1658 18.7028C32.3081 18.4206 32.2389 18.2878 32.1974 17.2418C32.1974 17.1753 32.1697 17.0923 32.1421 16.9595C31.8792 17.2252 31.644 17.441 31.4504 17.69C31.229 17.9723 31.0077 17.9889 30.7033 17.8727C29.6243 17.4908 28.5452 17.1255 27.4523 16.7603C26.5808 16.4614 25.7092 16.1792 24.7962 15.8637C23.2883 21.8242 21.7942 27.7184 20.2863 33.6789C20.5768 33.6789 20.7428 33.6789 20.9226 33.6789C24.8377 33.6789 28.7665 33.6789 32.6816 33.6789C32.8199 33.6789 32.9444 33.6789 33.0828 33.6789C33.5255 33.6955 33.8021 33.9944 33.8021 34.4593C33.816 34.9408 33.5255 35.2728 33.0689 35.2728C32.4187 35.2895 31.7547 35.2728 31.0215 35.2728C31.1183 35.5053 31.1737 35.6547 31.2567 35.8041C31.727 36.7505 32.2112 37.6969 32.6677 38.6599C32.7784 38.8923 32.8476 39.2576 32.7646 39.4569C32.6678 39.6893 32.3772 39.955 32.1836 39.955C31.9622 39.955 31.6579 39.7059 31.5334 39.4735C30.8693 38.2448 30.2468 36.983 29.6381 35.7045C29.4721 35.3725 29.2922 35.2728 28.9741 35.2728C26.0966 35.2895 23.2191 35.2895 20.3554 35.2728C20.0096 35.2728 19.8574 35.3891 19.7744 35.7709C19.4977 36.9332 19.1934 38.0954 18.889 39.2576C18.7369 39.8387 18.4325 40.0712 18.0313 39.955C17.5886 39.8055 17.4365 39.407 17.5748 38.8259C17.7823 38.029 17.9898 37.2154 18.1835 36.4185C18.2665 36.0698 18.3495 35.7045 18.4464 35.2895C18.2388 35.2895 18.0867 35.2895 17.9483 35.2895C15.9286 35.2895 13.9088 35.3061 11.889 35.2728C11.5432 35.2728 11.3633 35.4223 11.1973 35.7543C10.5886 36.983 9.97992 38.2116 9.35738 39.4403C9.0807 39.9882 8.72102 40.1376 8.33366 39.8719C7.98781 39.6229 7.90481 39.158 8.15382 38.6599C8.41667 38.112 8.69335 37.5641 8.97003 37.0162C9.23288 36.4683 9.50956 35.937 9.82774 35.2895C9.06687 35.2895 8.389 35.2729 7.72497 35.3061C7.42062 35.3227 7.24078 35.1898 7.07477 34.9076C5.8297 32.8986 4.55697 30.8896 3.31191 28.8806C2.42653 27.4693 1.54115 26.0581 0.655771 24.6468C0.406758 24.2317 0.462094 23.7336 0.780277 23.468C1.09846 23.2023 1.45815 23.2687 1.74866 23.6838C1.81783 23.7668 1.87317 23.883 1.9285 23.9661C2.89689 25.5102 3.9206 26.9878 4.79215 28.5984C5.38701 29.7108 6.09255 30.0594 7.19927 30.0096C9.80007 29.91 12.4147 29.9764 15.0293 29.9764C15.2369 29.9764 15.5274 29.9598 15.6519 30.1092C15.8179 30.3085 15.9424 30.6572 15.9424 30.9394C15.9286 31.3379 15.6104 31.5371 15.2784 31.5537C14.8218 31.5869 14.3653 31.5537 13.7704 31.5537C14.1578 32.1514 14.4898 32.6495 14.808 33.1974ZM32.5017 13.9543C33.3733 10.3182 31.8377 4.93878 27.6045 3.32827C23.5649 1.80077 19.4424 4.80595 18.1143 9.07298C22.9286 10.7001 27.7152 12.3272 32.5017 13.9543ZM19.0827 12.1446C22.8041 13.4064 26.5116 14.6517 30.2191 15.9633C30.8693 16.1958 31.229 15.9799 31.6164 15.3324C27.1618 13.8215 22.7211 12.3106 18.2388 10.7831C18.2942 11.8291 18.3495 11.8955 19.0827 12.1446ZM12.2349 31.6201C12.1934 31.5537 12.0827 31.5205 11.9997 31.5205C10.3258 31.5205 8.63801 31.5205 6.83959 31.5205C7.19927 32.1182 7.53129 32.5997 7.80797 33.1144C8.02932 33.5295 8.29216 33.6623 8.72102 33.6457C10.2704 33.6125 11.8198 33.6291 13.4938 33.6291C13.0234 32.882 12.6361 32.2345 12.2349 31.6201ZM34.3555 17.3414C35.6421 17.7731 36.9425 18.2047 38.2429 18.653C39.0314 18.9187 39.0314 18.9187 39.1559 17.8893C37.3713 17.2916 35.5867 16.6772 33.7745 16.0629C33.6223 17.0923 33.6361 17.0923 34.3555 17.3414ZM10.4088 9.1726C10.5609 9.23901 10.7131 9.30542 10.8515 9.35523C12.1934 9.82012 13.5491 10.2684 14.891 10.7333C15.6657 10.999 15.6657 10.999 16.0669 10.0526C14.2546 9.43825 12.47 8.82393 10.644 8.20961C10.5748 8.57488 10.5056 8.84053 10.4088 9.1726Z" fill="#0078FF"/>
</svg>
