<svg width="24" height="24" viewBox="0 0 24 24" fill="none" xmlns="http://www.w3.org/2000/svg">
<path d="M6.10078 0H5.45577C4.91825 0.0268757 4.21948 0.0537514 3.92385 0.134378C3.44009 0.241881 2.9832 0.37626 2.60694 0.56439C2.17693 0.779395 1.7738 1.07503 1.42441 1.42441C1.07503 1.7738 0.806271 2.15006 0.56439 2.60694C0.37626 2.9832 0.215006 3.44009 0.134378 3.89698C0.0806271 4.21948 0.0268757 4.91825 0 5.45577V18.5442C0.0268757 19.0817 0.0537514 19.7805 0.134378 20.0761C0.241881 20.5599 0.37626 21.0168 0.56439 21.3931C0.779395 21.8231 1.07503 22.2262 1.42441 22.5756C1.7738 22.925 2.15006 23.1937 2.60694 23.4356C2.9832 23.6237 3.44009 23.785 3.89698 23.8656C4.21948 23.9194 4.91825 23.9731 5.45577 24H18.5442C19.0817 23.9731 19.7805 23.9462 20.0761 23.8656C20.5599 23.7581 21.0168 23.6237 21.3931 23.4356C21.8231 23.2206 22.2262 22.925 22.5756 22.5756C22.925 22.2262 23.1937 21.8499 23.4356 21.3931C23.6237 21.0168 23.785 20.5599 23.8656 20.103C23.9194 19.7805 23.9731 19.0817 24 18.5442V5.45577C23.9731 4.91825 23.9462 4.21948 23.8656 3.92385C23.7581 3.44009 23.6237 2.9832 23.4356 2.60694C23.2206 2.17693 22.925 1.7738 22.5756 1.42441C22.2262 1.07503 21.8499 0.806271 21.3931 0.56439C21.0168 0.37626 20.5599 0.215006 20.103 0.134378C19.7805 0.0806271 19.0817 0.0268757 18.5442 0H6.10078Z" fill="url(#paint0_linear_439_12827)"/>
<path d="M16.367 13.2737C16.152 13.1662 15.077 12.6556 14.8888 12.5749C14.7007 12.4943 14.5395 12.4674 14.4051 12.6824C14.2707 12.8974 13.8407 13.3812 13.7332 13.5156C13.5988 13.65 13.4913 13.6768 13.2763 13.5693C13.0613 13.4618 12.3625 13.2468 11.5294 12.5212C10.8844 11.9568 10.4544 11.258 10.32 11.043C10.1856 10.828 10.32 10.7205 10.4275 10.613C10.535 10.5055 10.6425 10.3711 10.75 10.2367C10.8575 10.1024 10.8844 10.0217 10.965 9.88736C11.0456 9.75298 10.9919 9.61861 10.9381 9.5111C10.8844 9.4036 10.4544 8.35545 10.2662 7.92544C10.0781 7.5223 9.91684 7.57605 9.78246 7.54918H9.37933C9.24495 7.54918 9.00307 7.60293 8.81494 7.81793C8.62681 8.03294 8.06242 8.54358 8.06242 9.59173C8.06242 10.6399 8.84181 11.6343 8.94932 11.7955C9.05682 11.9299 10.4812 14.08 12.6313 14.9937C13.1419 15.2087 13.5451 15.3431 13.8676 15.4506C14.3782 15.6119 14.862 15.585 15.2382 15.5313C15.6414 15.4775 16.5283 15.0206 16.6895 14.5369C16.8776 14.0531 16.8776 13.6231 16.8239 13.5425C16.7164 13.435 16.582 13.3812 16.367 13.2737ZM12.255 18.8101C10.965 18.8101 9.72871 18.4607 8.62681 17.8157L8.35805 17.6544L5.67048 18.3532L6.39613 15.7463L6.23487 15.4775C5.5361 14.3487 5.15984 13.0587 5.15984 11.7149C5.15984 7.81793 8.35805 4.6466 12.2819 4.6466C14.1363 4.6466 15.937 5.37224 17.2808 6.71603C18.6246 8.05981 19.3502 9.83361 19.3502 11.7149C19.3502 15.6119 16.152 18.8101 12.255 18.8101ZM18.3021 5.69475C16.6895 4.08221 14.5395 3.19531 12.255 3.19531C7.55178 3.19531 3.70856 7.01166 3.70856 11.7149C3.70856 13.2199 4.11169 14.6712 4.83734 15.9613L3.62793 20.3689L8.14305 19.1864C9.37933 19.8582 10.8037 20.2345 12.2282 20.2345C16.9314 20.2345 20.7746 16.4182 20.7746 11.7149C20.8015 9.45735 19.9146 7.30729 18.3021 5.69475Z" fill="white"/>
<defs>
<linearGradient id="paint0_linear_439_12827" x1="12.0081" y1="0.00537514" x2="12.0081" y2="23.9839" gradientUnits="userSpaceOnUse">
<stop stop-color="#62FA7F"/>
<stop offset="0.686" stop-color="#22CC40"/>
<stop offset="1" stop-color="#05B723"/>
</linearGradient>
</defs>
</svg>
